<svg width="265" height="50" viewBox="0 0 265 50" fill="none" xmlns="http://www.w3.org/2000/svg">
<path d="M64.64 36.32C62.912 36.32 61.2587 36.0747 59.68 35.584C58.1013 35.0933 56.864 34.464 55.968 33.696L57.728 30.432C58.6667 31.1787 59.776 31.776 61.056 32.224C62.3573 32.6507 63.68 32.864 65.024 32.864C66.6667 32.864 67.968 32.5867 68.928 32.032C69.9093 31.456 70.4 30.6773 70.4 29.696C70.4 29.1413 70.1973 28.6827 69.792 28.32C69.408 27.936 68.9173 27.6267 68.32 27.392C67.744 27.1573 66.9333 26.8907 65.888 26.592C64.4373 26.1653 63.264 25.76 62.368 25.376C61.472 24.9707 60.704 24.3733 60.064 23.584C59.424 22.7947 59.104 21.7707 59.104 20.512C59.104 19.0613 59.5093 17.792 60.32 16.704C61.152 15.616 62.304 14.7733 63.776 14.176C65.248 13.5787 66.944 13.28 68.864 13.28C70.3147 13.28 71.6907 13.4507 72.992 13.792C74.2933 14.112 75.4133 14.5707 76.352 15.168L74.72 18.464C73.888 17.9093 72.9493 17.4827 71.904 17.184C70.8587 16.8853 69.7707 16.736 68.64 16.736C66.976 16.736 65.6533 17.0453 64.672 17.664C63.712 18.2613 63.232 19.0613 63.232 20.064C63.232 20.64 63.4347 21.12 63.84 21.504C64.2453 21.888 64.736 22.1973 65.312 22.432C65.888 22.6453 66.7307 22.9227 67.84 23.264C69.248 23.6693 70.4 24.064 71.296 24.448C72.192 24.832 72.9493 25.3973 73.568 26.144C74.208 26.8907 74.528 27.8613 74.528 29.056C74.528 30.528 74.112 31.808 73.28 32.896C72.4693 33.984 71.3067 34.8267 69.792 35.424C68.2987 36.0213 66.5813 36.32 64.64 36.32ZM85.501 36.224C83.837 36.224 82.3757 35.9147 81.117 35.296C79.8797 34.656 78.9197 33.7707 78.237 32.64C77.5543 31.5093 77.213 30.1973 77.213 28.704C77.213 26.8053 77.6397 25.0987 78.493 23.584C79.3677 22.0693 80.573 20.8853 82.109 20.032C83.6663 19.1573 85.4157 18.72 87.357 18.72C89.021 18.72 90.4823 19.0293 91.741 19.648C92.9997 20.2667 93.9703 21.1413 94.653 22.272C95.3357 23.4027 95.677 24.7147 95.677 26.208C95.677 28.1067 95.2397 29.8133 94.365 31.328C93.4903 32.8427 92.2743 34.0373 90.717 34.912C89.181 35.7867 87.4423 36.224 85.501 36.224ZM85.757 32.8C86.8877 32.8 87.8903 32.5333 88.765 32C89.661 31.4453 90.365 30.688 90.877 29.728C91.389 28.7467 91.645 27.6373 91.645 26.4C91.645 25.056 91.2503 24.0107 90.461 23.264C89.6717 22.496 88.5623 22.112 87.133 22.112C86.0023 22.112 84.989 22.3893 84.093 22.944C83.2183 23.4773 82.525 24.2347 82.013 25.216C81.501 26.176 81.245 27.2747 81.245 28.512C81.245 29.856 81.6397 30.912 82.429 31.68C83.2183 32.4267 84.3277 32.8 85.757 32.8ZM110.094 18.72C111.502 18.72 112.771 19.0187 113.902 19.616C115.054 20.2133 115.961 21.0773 116.622 22.208C117.283 23.3387 117.614 24.672 117.614 26.208C117.614 28.1067 117.187 29.824 116.334 31.36C115.502 32.8747 114.35 34.0693 112.878 34.944C111.427 35.7973 109.806 36.224 108.014 36.224C106.606 36.224 105.39 35.9787 104.366 35.488C103.342 34.976 102.563 34.24 102.03 33.28L101.486 36H97.678L102.414 12.256H106.414L104.782 20.512C106.233 19.3173 108.003 18.72 110.094 18.72ZM107.694 32.8C108.825 32.8 109.827 32.5333 110.702 32C111.598 31.4453 112.302 30.688 112.814 29.728C113.326 28.7467 113.582 27.6373 113.582 26.4C113.582 25.056 113.187 24.0107 112.398 23.264C111.609 22.496 110.499 22.112 109.07 22.112C107.939 22.112 106.926 22.3893 106.03 22.944C105.155 23.4773 104.462 24.2347 103.95 25.216C103.438 26.176 103.182 27.2747 103.182 28.512C103.182 29.856 103.577 30.912 104.366 31.68C105.155 32.4267 106.265 32.8 107.694 32.8ZM139.712 18.912L136.319 36H132.512L132.864 34.24C131.37 35.5627 129.514 36.224 127.296 36.224C125.888 36.224 124.608 35.9253 123.456 35.328C122.325 34.7307 121.429 33.8667 120.768 32.736C120.106 31.584 119.776 30.24 119.776 28.704C119.776 26.8053 120.192 25.0987 121.024 23.584C121.877 22.048 123.029 20.8533 124.48 20C125.952 19.1467 127.594 18.72 129.408 18.72C132.138 18.72 134.08 19.6267 135.232 21.44L135.712 18.912H139.712ZM128.32 32.8C129.45 32.8 130.453 32.5333 131.328 32C132.224 31.4453 132.928 30.688 133.44 29.728C133.952 28.7467 134.208 27.6373 134.208 26.4C134.208 25.056 133.813 24.0107 133.024 23.264C132.234 22.496 131.125 22.112 129.696 22.112C128.565 22.112 127.552 22.3893 126.656 22.944C125.781 23.4773 125.088 24.2347 124.576 25.216C124.064 26.176 123.808 27.2747 123.808 28.512C123.808 29.856 124.202 30.912 124.992 31.68C125.781 32.4267 126.89 32.8 128.32 32.8ZM138.833 42.432C137.212 42.432 135.9 42.1013 134.897 41.44L136.561 38.464C137.18 38.912 137.937 39.136 138.833 39.136C139.601 39.136 140.198 38.912 140.625 38.464C141.073 38.0373 141.404 37.344 141.617 36.384L145.105 18.912H149.105L145.617 36.32C144.806 40.3947 142.545 42.432 138.833 42.432ZM147.985 16.096C147.281 16.096 146.705 15.8827 146.257 15.456C145.809 15.008 145.585 14.4747 145.585 13.856C145.585 13.1307 145.83 12.5227 146.321 12.032C146.833 11.5413 147.494 11.296 148.305 11.296C149.009 11.296 149.585 11.5093 150.033 11.936C150.481 12.3413 150.705 12.8427 150.705 13.44C150.705 14.2293 150.449 14.8693 149.937 15.36C149.446 15.8507 148.796 16.096 147.985 16.096ZM171.087 18.912L167.694 36H163.887L164.239 34.24C162.745 35.5627 160.889 36.224 158.671 36.224C157.263 36.224 155.983 35.9253 154.831 35.328C153.7 34.7307 152.804 33.8667 152.143 32.736C151.481 31.584 151.151 30.24 151.151 28.704C151.151 26.8053 151.567 25.0987 152.399 23.584C153.252 22.048 154.404 20.8533 155.855 20C157.327 19.1467 158.969 18.72 160.783 18.72C163.513 18.72 165.455 19.6267 166.607 21.44L167.087 18.912H171.087ZM159.695 32.8C160.825 32.8 161.828 32.5333 162.703 32C163.599 31.4453 164.303 30.688 164.815 29.728C165.327 28.7467 165.583 27.6373 165.583 26.4C165.583 25.056 165.188 24.0107 164.399 23.264C163.609 22.496 162.5 22.112 161.071 22.112C159.94 22.112 158.927 22.3893 158.031 22.944C157.156 23.4773 156.463 24.2347 155.951 25.216C155.439 26.176 155.183 27.2747 155.183 28.512C155.183 29.856 155.577 30.912 156.367 31.68C157.156 32.4267 158.265 32.8 159.695 32.8ZM180.265 36.32C178.537 36.32 176.884 36.0747 175.305 35.584C173.726 35.0933 172.489 34.464 171.593 33.696L173.353 30.432C174.292 31.1787 175.401 31.776 176.681 32.224C177.982 32.6507 179.305 32.864 180.649 32.864C182.292 32.864 183.593 32.5867 184.553 32.032C185.534 31.456 186.025 30.6773 186.025 29.696C186.025 29.1413 185.822 28.6827 185.417 28.32C185.033 27.936 184.542 27.6267 183.945 27.392C183.369 27.1573 182.558 26.8907 181.513 26.592C180.062 26.1653 178.889 25.76 177.993 25.376C177.097 24.9707 176.329 24.3733 175.689 23.584C175.049 22.7947 174.729 21.7707 174.729 20.512C174.729 19.0613 175.134 17.792 175.945 16.704C176.777 15.616 177.929 14.7733 179.401 14.176C180.873 13.5787 182.569 13.28 184.489 13.28C185.94 13.28 187.316 13.4507 188.617 13.792C189.918 14.112 191.038 14.5707 191.977 15.168L190.345 18.464C189.513 17.9093 188.574 17.4827 187.529 17.184C186.484 16.8853 185.396 16.736 184.265 16.736C182.601 16.736 181.278 17.0453 180.297 17.664C179.337 18.2613 178.857 19.0613 178.857 20.064C178.857 20.64 179.06 21.12 179.465 21.504C179.87 21.888 180.361 22.1973 180.937 22.432C181.513 22.6453 182.356 22.9227 183.465 23.264C184.873 23.6693 186.025 24.064 186.921 24.448C187.817 24.832 188.574 25.3973 189.193 26.144C189.833 26.8907 190.153 27.8613 190.153 29.056C190.153 30.528 189.737 31.808 188.905 32.896C188.094 33.984 186.932 34.8267 185.417 35.424C183.924 36.0213 182.206 36.32 180.265 36.32ZM222.638 18.912L213.102 36H209.166L206.862 24.224L200.174 36H196.302L193.166 18.912H196.814L198.99 31.488L206.126 18.912H209.55L211.822 31.488L218.862 18.912H222.638ZM241.493 18.912L238.101 36H234.293L234.645 34.24C233.151 35.5627 231.295 36.224 229.077 36.224C227.669 36.224 226.389 35.9253 225.237 35.328C224.106 34.7307 223.21 33.8667 222.549 32.736C221.887 31.584 221.557 30.24 221.557 28.704C221.557 26.8053 221.973 25.0987 222.805 23.584C223.658 22.048 224.81 20.8533 226.261 20C227.733 19.1467 229.375 18.72 231.189 18.72C233.919 18.72 235.861 19.6267 237.013 21.44L237.493 18.912H241.493ZM230.101 32.8C231.231 32.8 232.234 32.5333 233.109 32C234.005 31.4453 234.709 30.688 235.221 29.728C235.733 28.7467 235.989 27.6373 235.989 26.4C235.989 25.056 235.594 24.0107 234.805 23.264C234.015 22.496 232.906 22.112 231.477 22.112C230.346 22.112 229.333 22.3893 228.437 22.944C227.562 23.4773 226.869 24.2347 226.357 25.216C225.845 26.176 225.589 27.2747 225.589 28.512C225.589 29.856 225.983 30.912 226.773 31.68C227.562 32.4267 228.671 32.8 230.101 32.8ZM255.75 18.72C257.158 18.72 258.428 19.0187 259.558 19.616C260.71 20.2133 261.617 21.0773 262.278 22.208C262.94 23.3387 263.27 24.672 263.27 26.208C263.27 28.1067 262.844 29.824 261.99 31.36C261.158 32.8747 260.006 34.0693 258.534 34.944C257.084 35.7973 255.462 36.224 253.67 36.224C252.326 36.224 251.153 35.9893 250.15 35.52C249.148 35.0507 248.369 34.368 247.814 33.472L246.086 42.208H242.086L246.726 18.912H250.534L250.182 20.704C251.676 19.3813 253.532 18.72 255.75 18.72ZM253.35 32.8C254.481 32.8 255.484 32.5333 256.358 32C257.254 31.4453 257.958 30.688 258.47 29.728C258.982 28.7467 259.238 27.6373 259.238 26.4C259.238 25.056 258.844 24.0107 258.054 23.264C257.265 22.496 256.156 22.112 254.726 22.112C253.596 22.112 252.582 22.3893 251.686 22.944C250.812 23.4773 250.118 24.2347 249.606 25.216C249.094 26.176 248.838 27.2747 248.838 28.512C248.838 29.856 249.233 30.912 250.022 31.68C250.812 32.4267 251.921 32.8 253.35 32.8Z" fill="white"/>
<circle cx="25" cy="25" r="25" fill="#D9D9D9"/>
</svg>
