<svg width="50" height="50" viewBox="0 0 50 50" fill="none" xmlns="http://www.w3.org/2000/svg">
<path d="M1.96361 34.73C3.22111 37.6997 5.0407 40.3983 7.3223 42.6775C9.59998 44.961 12.299 46.7808 15.2698 48.0362C18.3478 49.3394 21.6574 50.0073 25 49.9998C28.3443 50.0079 31.6558 49.34 34.7356 48.0362C37.7047 46.7807 40.4019 44.9608 42.6776 42.6775C44.9628 40.4013 46.7829 37.7019 48.0363 34.73C49.3395 31.652 50.0074 28.3424 49.9999 24.9999C50.0074 21.6574 49.3395 18.3478 48.0363 15.2698C46.7829 12.2979 44.9628 9.59847 42.6776 7.32222C40.4019 5.03895 37.7047 3.21907 34.7356 1.96353C31.6558 0.659748 28.3443 -0.00814769 25 -4.92978e-05C21.6574 -0.00755938 18.3478 0.660328 15.2698 1.96353C12.299 3.21895 9.59998 5.0388 7.3223 7.32222C5.0407 9.6014 3.22111 12.3001 1.96361 15.2698C0.663008 18.3486 -0.00477999 21.6576 2.57549e-05 24.9999C-0.00477999 28.3421 0.663008 31.6512 1.96361 34.73ZM25 1.27243C31.2877 1.27969 37.3159 3.78072 41.762 8.22685C46.2081 12.673 48.7092 18.7011 48.7164 24.9889C48.7092 31.2767 46.2081 37.3048 41.762 41.751C37.3159 46.1971 31.2877 48.6981 25 48.7054C18.7127 48.6981 12.6851 46.1969 8.23983 41.7506C3.79457 37.3043 1.29477 31.2762 1.28897 24.9889C1.29768 18.7035 3.79877 12.6782 8.24371 8.23427C12.6887 3.79035 18.7146 1.29066 25 1.2834V1.27243Z" fill="white"/>
<path d="M3.70223 34.0005C4.85663 36.7451 6.53312 39.2394 8.63859 41.3447C10.7463 43.4499 13.2423 45.1263 15.9883 46.2811C18.8336 47.4864 21.8933 48.1039 24.9834 48.0966C28.0753 48.1033 31.1366 47.4858 33.9841 46.2811C36.7301 45.1263 39.2261 43.4499 41.3338 41.3447C43.4392 39.2394 45.1157 36.7451 46.2701 34.0005C47.4749 31.1531 48.0924 28.0917 48.0856 24.9999C48.0924 21.9081 47.4749 18.8467 46.2701 15.9993C45.1157 13.2547 43.4392 10.7604 41.3338 8.65505C39.2261 6.54986 36.7301 4.87345 33.9841 3.71868C31.1366 2.51395 28.0753 1.89646 24.9834 1.9032C21.8933 1.89584 18.8336 2.51337 15.9883 3.71868C13.2423 4.87345 10.7463 6.54986 8.63859 8.65505C6.53312 10.7604 4.85663 13.2547 3.70223 15.9993C2.49576 18.8464 1.87639 21.9077 1.88125 24.9999C1.87639 28.0921 2.49576 31.1534 3.70223 34.0005ZM24.9999 2.46814C30.9715 2.47395 36.6969 4.84836 40.92 9.07041C45.1431 13.2925 47.5189 19.0173 47.5261 24.9889C47.5189 30.9605 45.1431 36.6854 40.92 40.9074C36.6969 45.1295 30.9715 47.5039 24.9999 47.5097C19.0292 47.5024 13.3052 45.1274 9.08331 40.9055C4.86142 36.6836 2.48637 30.9596 2.47912 24.9889C2.48637 19.0183 4.86142 13.2942 9.08331 9.07234C13.3052 4.85045 19.0292 2.4754 24.9999 2.46814Z" fill="white"/>
<path d="M15.8677 16.674H5.09546C5.09546 17.4013 5.3844 18.0988 5.8987 18.6131C6.41301 19.1274 7.11055 19.4164 7.83788 19.4164H13.767C14.3219 18.3996 15.0305 17.4745 15.8677 16.674Z" fill="white"/>
<path d="M36.2549 19.4712H42.173C42.9003 19.4712 43.5979 19.1823 44.1122 18.6679C44.6265 18.1536 44.9154 17.4561 44.9154 16.7288H34.1432C34.9826 17.53 35.6948 18.4548 36.2549 19.4712Z" fill="white"/>
<path d="M5.09546 21.177C5.09546 21.9043 5.3844 22.6019 5.8987 23.1162C6.41301 23.6305 7.11055 23.9194 7.83788 23.9194H12.4397C12.5104 22.9864 12.6946 22.0655 12.9881 21.177H5.09546Z" fill="white"/>
<path d="M44.9098 21.177H36.9788C37.275 22.0648 37.4593 22.986 37.5272 23.9194H42.1345C42.4974 23.9238 42.8576 23.8561 43.1941 23.7202C43.5306 23.5843 43.8368 23.383 44.095 23.1279C44.3532 22.8728 44.5581 22.569 44.698 22.2341C44.8379 21.8993 44.9099 21.5399 44.9098 21.177Z" fill="white"/>
<path d="M5.09547 25.6746C5.09185 26.037 5.16011 26.3966 5.2963 26.7325C5.4325 27.0684 5.63392 27.3739 5.88894 27.6315C6.14396 27.8891 6.44751 28.0935 6.78204 28.2331C7.11656 28.3726 7.47544 28.4444 7.8379 28.4444H13.0046C12.7097 27.5469 12.5255 26.6167 12.4561 25.6746H5.09547Z" fill="white"/>
<path d="M44.9099 25.6746H37.5382C37.4715 26.6171 37.2873 27.5476 36.9897 28.4444H42.1565C42.5199 28.4459 42.8799 28.3751 43.2157 28.2362C43.5515 28.0974 43.8563 27.8931 44.1125 27.6354C44.3687 27.3777 44.5711 27.0716 44.708 26.735C44.8449 26.3984 44.9135 26.0379 44.9099 25.6746Z" fill="white"/>
<path d="M13.767 30.1776H5.08447C5.08447 30.9049 5.3734 31.6025 5.8877 32.1168C6.402 32.6311 7.09956 32.92 7.8269 32.92H15.8348C15.0101 32.1163 14.3128 31.1916 13.767 30.1776Z" fill="white"/>
<path d="M34.1377 32.942H42.1456C42.8729 32.942 43.5704 32.6531 44.0848 32.1388C44.5991 31.6245 44.888 30.9269 44.888 30.1996H36.2548C35.6921 31.2157 34.9782 32.1403 34.1377 32.942Z" fill="white"/>
<path d="M25.0602 13.8766C22.1114 13.881 19.2847 15.0543 17.1996 17.1394C15.1146 19.2245 13.9412 22.0512 13.9369 24.9999C13.9412 27.9487 15.1146 30.7754 17.1996 32.8604C19.2847 34.9455 22.1114 36.1188 25.0602 36.1232C28.0089 36.1188 30.8356 34.9455 32.9207 32.8604C35.0058 30.7754 36.1791 27.9487 36.1834 24.9999C36.1791 22.0512 35.0058 19.2245 32.9207 17.1394C30.8356 15.0543 28.0089 13.881 25.0602 13.8766ZM25.0602 35.0207C23.7445 35.0207 22.4417 34.7615 21.2262 34.2578C20.0107 33.7542 18.9064 33.016 17.9763 32.0854C17.0462 31.1548 16.3086 30.0501 15.8056 28.8343C15.3026 27.6186 15.0441 26.3156 15.0448 24.9999C15.0441 23.6842 15.3026 22.3813 15.8056 21.1655C16.3086 19.9498 17.0462 18.845 17.9763 17.9145C18.9064 16.9839 20.0107 16.2457 21.2262 15.742C22.4417 15.2383 23.7445 14.9791 25.0602 14.9791C27.7178 14.9791 30.2667 16.0349 32.1459 17.9141C34.0252 19.7934 35.081 22.3422 35.081 24.9999C35.081 26.3159 34.8218 27.6189 34.3182 28.8347C33.8146 30.0505 33.0765 31.1552 32.1459 32.0857C31.2154 33.0162 30.1107 33.7543 28.895 34.2579C27.6792 34.7615 26.3761 35.0207 25.0602 35.0207Z" fill="#000B29"/>
<path d="M25.0602 35.0208C30.5946 35.0208 35.0811 30.5343 35.0811 24.9999C35.0811 19.4656 30.5946 14.9791 25.0602 14.9791C19.5259 14.9791 15.0394 19.4656 15.0394 24.9999C15.0394 30.5343 19.5259 35.0208 25.0602 35.0208Z" fill="#E3E8EB"/>
<path d="M20.2008 25.1535C18.4237 22.6689 18.2098 20.6065 18.5279 19.0653C17.0515 20.6891 16.234 22.8053 16.2352 24.9999C16.2359 26.6079 16.6755 28.1851 17.5068 29.5615C18.3381 30.938 19.5294 32.0613 20.9522 32.8103C21.8243 31.5379 22.8829 28.9106 20.2008 25.1535Z" fill="#AD2A00"/>
<path d="M24.8464 25.1535C21.5884 20.5956 23.7494 17.3102 24.7092 16.1858C22.6926 16.266 20.7652 17.0389 19.2518 18.3742C18.7033 19.8222 18.5881 22.0272 20.6175 24.8738C23.4093 28.779 22.3453 31.6476 21.4073 33.0681C22.4537 33.5419 23.5832 33.8047 24.7312 33.8415C25.1645 33.4356 28.4389 30.1941 24.8464 25.1535Z" fill="#AD2A00"/>
<path d="M29.4866 25.1535C26.7003 21.2483 27.7588 18.3797 28.7022 16.9592C27.6752 16.4968 26.5695 16.2344 25.4442 16.1858C25.1261 16.4655 21.6048 19.718 25.2797 24.8464C28.5212 29.3823 26.448 32.6677 25.4771 33.8141C27.4618 33.723 29.3568 32.9611 30.8523 31.6531C31.4063 30.2051 31.516 28.0001 29.4866 25.1535Z" fill="#AD2A00"/>
<path d="M29.9253 24.8464C31.6969 27.331 31.9108 29.3933 31.5708 30.9345C33.0504 29.3127 33.8684 27.1953 33.8635 24.9999C33.8634 23.3919 33.424 21.8143 32.5927 20.4378C31.7614 19.0613 30.5697 17.9381 29.1465 17.1895C28.2963 18.4401 27.2432 21.1167 29.9253 24.8464Z" fill="#AD2A00"/>
<path d="M25.2852 24.8464C21.6268 19.718 25.1316 16.4655 25.4498 16.1858H25.0658H24.7148C23.733 17.2828 21.5939 20.5737 24.8519 25.1535C28.4445 30.1941 25.17 33.4356 24.7532 33.8141H25.0658H25.4827C26.448 32.6677 28.5213 29.3823 25.2852 24.8464Z" fill="#E3E8EB"/>
<path d="M31.5926 30.9345C31.9107 29.3933 31.6968 27.331 29.9472 24.8463C27.2651 21.0892 28.3017 18.44 29.1902 17.1676C29.0367 17.0853 28.8831 17.0085 28.724 16.9372C27.7806 18.3578 26.7221 21.2263 29.5084 25.1316C31.5378 27.9782 31.4281 30.1831 30.8741 31.6311C31.1273 31.4135 31.3673 31.1809 31.5926 30.9345Z" fill="#E3E8EB"/>
<path d="M20.634 24.8463C18.6046 21.9997 18.7197 19.7948 19.2682 18.3468C19.0094 18.5736 18.7623 18.8134 18.5278 19.0653C18.2097 20.6066 18.4236 22.6689 20.2007 25.1535C22.8828 28.9106 21.8461 31.5598 20.9521 32.8323C21.1057 32.9146 21.2647 32.9913 21.4238 33.0626C22.3617 31.6201 23.4257 28.7516 20.634 24.8463Z" fill="#E3E8EB"/>
</svg>
