<svg width="88" height="15" viewBox="0 0 88 15" fill="none" xmlns="http://www.w3.org/2000/svg">
<path d="M14.9414 7.29989L16.4591 5.78223C16.4591 5.78223 17.9993 7.32994 18.7731 8.10379C19.7949 9.12558 20.8167 10.1549 21.8535 11.1692C23.2059 12.484 25.2946 11.9055 25.7604 10.0948C25.9557 9.33595 25.7303 8.66728 25.2345 8.08125C24.979 7.78073 24.4005 7.23227 24.4005 7.23227L23.4989 7.96104V4.6853L26.692 4.74541L25.9332 5.66953C25.9332 5.66953 26.4892 6.23302 26.7596 6.54106C29.0136 9.04294 27.9542 12.9272 24.7536 13.8589C23.2059 14.3097 21.7483 14.0242 20.5913 12.9423C18.6529 11.1166 14.9414 7.29989 14.9414 7.29989Z" fill="#5547FF"/>
<path d="M41.0154 13.7383H39.4226V8.85478L39.4301 8.697C39.4301 8.697 37.935 12.1005 37.2738 13.6933C37.2062 13.7308 37.1837 13.7459 37.1687 13.7459C36.0191 13.821 36.0116 13.821 35.5684 12.7541C35.2303 11.9352 34.6442 10.5152 34.3587 9.83149L33.9756 9.08017L33.8553 8.87732V13.6933L32.21 13.7083V5.66919L34.0582 5.62411C34.9072 7.60008 35.7412 9.53848 36.6277 11.5971C37.5068 9.5535 39.1897 5.65417 39.1897 5.65417H41.0229V13.7383H41.0154Z" fill="#D9D9D9"/>
<path d="M22.8499 4.07701C22.4141 4.51277 21.7905 4.5278 21.2947 4.0695C20.8138 3.61871 20.3555 3.13786 19.8822 2.67205C19.1459 1.95078 18.4021 1.95078 17.6583 2.68707C15.5771 4.7532 13.496 6.83434 11.4148 8.90046C11.257 9.05824 11.0842 9.2085 10.9114 9.35877C10.9039 9.35125 10.8964 9.34374 10.8814 9.33623L10.7311 9.38131L10.07 9.56162L10.0099 8.78777L9.90467 7.42788V7.39032C9.89716 7.39032 9.89716 7.3828 9.88965 7.3828L11.1443 6.11308C11.1443 6.11308 14.3374 2.93501 15.9227 1.3347C16.8018 0.463176 17.7785 -0.0477194 19.0407 0.0349255C19.792 0.0875177 20.4682 0.312913 21.0242 0.801269C21.6553 1.35724 22.2563 1.96581 22.8424 2.57438C23.2781 3.04019 23.2631 3.66379 22.8499 4.07701Z" fill="#6347F9"/>
<path d="M9.92609 7.38269V7.42009C9.91861 7.40513 9.91861 7.39017 9.91113 7.36774C9.91861 7.38269 9.92609 7.38269 9.92609 7.38269Z" fill="#6347F9"/>
<path d="M10.0405 8.78757L10.1006 9.56142C10.0405 9.30598 10.033 9.05053 10.0405 8.78757Z" fill="#6347F9"/>
<path d="M10.0996 9.56154L10.7608 9.38123C10.5429 9.44884 10.3626 9.63667 10.0996 9.56154Z" fill="#6347F9"/>
<path d="M10.9381 9.36609C10.8777 9.35854 10.8173 9.36609 10.7568 9.3812L10.9079 9.33588C10.923 9.35099 10.9306 9.35854 10.9381 9.36609Z" fill="#6347F9"/>
<path d="M76.6085 7.33023V8.20176C76.5484 8.15668 76.3831 7.99139 76.338 7.95382C74.7302 6.56389 72.4312 7.15743 71.7024 9.14842C71.3793 10.035 71.3943 10.9215 71.6798 11.8156C72.0179 12.8674 73.0022 13.9343 74.595 13.8517C75.3613 13.8066 76.0675 13.4835 76.616 12.9726L76.6085 13.739H78.1863V7.33023H76.6085ZM76.4808 11.0718C76.2479 11.9433 75.5717 12.4542 74.7152 12.3941C73.9413 12.334 73.2952 11.6804 73.1975 10.8464C73.1825 10.7262 73.1825 10.5985 73.175 10.4782C73.1825 9.46397 73.8737 8.69763 74.8204 8.66006C75.737 8.6225 76.4958 9.38884 76.5484 10.3956C76.5559 10.621 76.5409 10.8464 76.4808 11.0718Z" fill="#D9D9D9"/>
<path d="M66.4519 13.7236L64.8291 13.7386C64.8291 13.7386 64.8291 8.04364 64.8291 5.17361C65.34 5.17361 65.8509 5.17361 66.4144 5.17361C66.4144 6.07519 66.4144 6.9918 66.4144 8.0211C67.053 7.45762 67.6991 7.20968 68.4504 7.2172C69.8704 7.23974 70.8922 8.17137 70.9373 9.59136C70.9749 10.9512 70.9448 13.7161 70.9448 13.7161L69.307 13.7236C69.307 13.7236 69.307 11.5448 69.307 10.4779C69.307 10.23 69.3145 9.98955 69.2544 9.74162C69.0665 8.98279 68.5256 8.56205 67.7818 8.61464C67.038 8.66724 66.5121 9.15559 66.4745 9.92945C66.4294 10.9588 66.4444 13.0249 66.4444 13.0249L66.4519 13.7236Z" fill="#D9D9D9"/>
<path d="M43.6683 7.37497H41.9854V10.7484C41.9854 10.9362 41.9854 11.124 41.9929 11.3044C42.083 13.0023 43.3002 14.0316 44.9831 13.8213C45.5466 13.7536 46.0575 13.4381 46.5158 13.085L46.5083 13.7461L48.1687 13.7236V7.37497H46.4782V7.98354C46.4782 8.99781 46.4933 10.0046 46.4707 11.0189C46.4557 11.7176 46.1326 12.1684 45.5691 12.3562C44.5624 12.6868 43.6984 12.0782 43.6758 10.9813L43.6683 7.37497Z" fill="#D9D9D9"/>
<path d="M81.8633 7.33C82.4268 7.33 83.4711 7.33 83.4711 7.33L83.4861 7.99868C84.0872 7.50281 84.7709 7.18725 85.5447 7.21731C86.8821 7.2699 87.8889 8.13391 87.9565 9.47877C88.0241 10.8762 87.994 13.7838 87.994 13.7838L86.3562 13.7688C86.3562 13.7688 86.3562 13.04 86.3562 12.6944C86.3487 11.8079 86.3787 10.9138 86.3336 10.0272C86.2885 9.10311 85.7175 8.5847 84.8686 8.60724C84.0346 8.62978 83.5087 9.20078 83.5012 10.1249C83.4861 11.1166 83.5012 12.1084 83.4936 13.1001V13.7312C82.9903 13.7312 82.4193 13.7237 81.8633 13.7237C81.8633 11.6125 81.8633 9.50131 81.8633 7.33Z" fill="#D9D9D9"/>
<path d="M64.1677 9.4638C63.5291 9.47131 63.0182 9.47882 62.4697 9.49385C62.0265 8.7801 61.5081 8.50211 60.8845 8.61481C60.2684 8.72751 59.8552 9.20084 59.7049 9.96718C59.6373 10.3128 59.6298 10.6659 59.6899 11.0115C59.8101 11.6802 60.1031 12.2286 60.8319 12.3939C61.5005 12.5442 61.9964 12.2963 62.4622 11.575C63.0107 11.575 63.5667 11.575 64.1752 11.575C64.0776 12.1685 63.777 12.6043 63.4014 13.0175C62.2819 14.2121 59.5171 14.2046 58.4577 12.454C57.3908 10.7035 58.0144 8.23915 59.7951 7.46529C61.2676 6.83419 63.7395 7.21736 64.1677 9.4638Z" fill="#D9D9D9"/>
<path d="M12.9813 2.34879C12.4704 2.85969 11.9745 3.34053 11.4336 3.88148C11.0504 3.49831 10.6447 3.06255 10.2164 2.64932C9.51771 1.96562 8.79644 1.96562 8.09772 2.64181C7.5192 3.2053 6.96323 3.79132 6.3772 4.33978C5.73106 4.94835 4.837 4.78306 4.52896 4.02423C4.34864 3.58847 4.46134 3.19778 4.76186 2.88223C5.43805 2.1835 6.10672 1.47727 6.84301 0.838648C8.14279 -0.288327 10.1188 -0.273301 11.4636 0.846161C12.0196 1.31949 12.5004 1.86795 12.9813 2.34879Z" fill="#7645ED"/>
<path d="M55.1499 12.3567V13.7316C54.5112 13.7842 53.8726 13.8217 53.2565 13.6489C52.4827 13.4311 52.077 12.8375 52.0544 11.9059C52.0394 11.0569 52.0544 10.2154 52.0544 9.36644V8.63014L51.3181 8.61512L51.2881 7.39799H52.0845V5.78265L53.6097 5.79768V7.39799H55.1348V8.6602H53.7524L53.7374 9.975C53.7374 9.975 53.7299 11.0494 53.7374 11.5828C53.7449 12.229 53.8501 12.3341 54.4962 12.3492C54.6991 12.3567 54.9019 12.3567 55.1499 12.3567Z" fill="#D9D9D9"/>
<path d="M50.7836 13.7387C50.2427 13.7387 49.7468 13.7387 49.1758 13.7387C49.1758 12.3112 49.1758 10.8988 49.1758 9.48629C49.1758 8.0663 49.1758 6.64631 49.1758 5.18124C49.7092 5.18124 50.2351 5.18124 50.7836 5.18124C50.7836 8.02122 50.7836 10.8537 50.7836 13.7387Z" fill="#D9D9D9"/>
<path d="M57.3578 13.7312C56.8094 13.7312 56.2985 13.7312 55.75 13.7312C55.75 11.605 55.75 7.36005 55.75 7.36005L57.3578 7.38259C57.3578 7.3901 57.3578 11.5749 57.3578 13.7312Z" fill="#D9D9D9"/>
<path d="M79.2129 7.33014C79.7614 7.33014 80.2722 7.33014 80.8282 7.33014C80.8282 9.45637 80.8282 13.7238 80.8282 13.7238L79.2129 13.7389C79.2129 13.7389 79.2129 9.50145 79.2129 7.33014Z" fill="#D9D9D9"/>
<path d="M57.5817 5.57963C57.5967 6.1356 57.1985 6.54883 56.6275 6.57137C56.0265 6.60142 55.5682 6.19571 55.5531 5.63973C55.5381 5.08376 55.9363 4.67805 56.5073 4.65551C57.1234 4.61794 57.5667 5.00863 57.5817 5.57963Z" fill="#D9D9D9"/>
<path d="M81.0416 5.63948C81.0191 6.2255 80.5833 6.60116 79.9748 6.56359C79.3812 6.52603 79.0206 6.14286 79.0356 5.57186C79.0506 4.99334 79.4864 4.61768 80.1025 4.64774C80.6735 4.67028 81.0566 5.07599 81.0416 5.63948Z" fill="#D9D9D9"/>
<path d="M9.91826 7.37515C8.64102 8.63736 7.35627 9.89957 6.08654 11.1693C5.40285 11.853 4.59142 12.0183 3.69736 11.7478C2.74318 11.4548 2.2398 10.741 2.14213 9.79439C2.03694 8.8327 3.2691 7.56298 3.2691 7.56298L4.10307 8.26921L4.09555 5.0686H0.879914L1.6688 5.99272C1.6688 5.99272 1.42086 6.2632 1.30065 6.39843C0.654519 7.1197 0.196215 7.92361 0.0534646 8.90032C-0.224523 10.7561 0.594413 12.5292 2.20975 13.4533C3.84762 14.3849 5.92126 14.2422 7.29617 12.995C8.56589 11.8455 10.9325 9.36614 10.9325 9.36614L10.9851 9.32106L10.7522 9.38868L10.0911 9.56899L9.92578 7.36012L9.91826 7.37515Z" fill="#7645ED"/>
</svg>
