<svg width="265" height="62" viewBox="0 0 265 62" fill="none" xmlns="http://www.w3.org/2000/svg">
<path d="M69.0352 33.3349L73.7401 33.09C73.8068 34.5834 74.0618 35.5934 74.5051 36.1201C75.2301 36.9701 76.5601 37.395 78.5051 37.395C80.1201 37.395 81.2901 37.11 82.0051 36.53C82.3366 36.2897 82.607 35.9749 82.7946 35.611C82.9821 35.2471 83.0817 34.8444 83.0852 34.435C83.0858 34.0864 83.0064 33.7423 82.8529 33.4294C82.6995 33.1164 82.4761 32.843 82.2002 32.6301C81.7869 32.2701 80.6485 31.6867 78.7852 30.8801C77.3804 30.2993 76.0172 29.6225 74.7052 28.8549C73.8736 28.3308 73.1861 27.6073 72.7052 26.7499C72.1975 25.8224 71.9439 24.777 71.9702 23.7199C71.9472 22.7734 72.1312 21.8332 72.5095 20.9653C72.8878 20.0973 73.4512 19.3225 74.1602 18.695C75.6235 17.3617 77.7418 16.695 80.5151 16.695C83.2885 16.695 85.4702 17.3617 87.0602 18.695C87.8256 19.3509 88.4469 20.1582 88.8849 21.0661C89.3229 21.974 89.5682 22.9626 89.6052 23.9699L84.8751 24.185C84.8217 23.176 84.3747 22.2282 83.6301 21.5451C82.9201 20.9351 81.8719 20.6301 80.4852 20.6301C79.0986 20.6301 78.1235 20.87 77.5602 21.35C77.2826 21.5642 77.0589 21.8404 76.907 22.1564C76.7551 22.4724 76.6791 22.8195 76.6852 23.1701C76.6785 23.4959 76.7472 23.8188 76.886 24.1137C77.0248 24.4086 77.2299 24.6675 77.4852 24.8701C78.5878 25.6429 79.7818 26.2761 81.0402 26.7551C83.8068 27.9451 85.5652 28.9116 86.3152 29.655C86.8738 30.2006 87.3123 30.857 87.6024 31.582C87.8926 32.307 88.028 33.0845 88.0001 33.8649C88.007 34.898 87.7867 35.92 87.3546 36.8583C86.9226 37.7967 86.2895 38.6287 85.5001 39.2951C83.8335 40.7951 81.5001 41.5451 78.5001 41.5451C76.6577 41.59 74.8274 41.2351 73.1351 40.5051C71.7665 39.9405 70.6358 38.9191 69.9352 37.6149C69.2824 36.2858 68.973 34.8143 69.0352 33.3349Z" fill="white"/>
<path d="M91.3101 33.895C91.3101 30.6683 92.2201 28.0983 94.0401 26.185C95.8601 24.2717 98.2485 23.3133 101.205 23.31C103.772 23.31 105.772 24.0183 107.205 25.435C108.638 26.8517 109.358 28.7534 109.365 31.1401C109.419 33.8298 108.459 36.4413 106.675 38.455C104.875 40.5117 102.462 41.5384 99.4351 41.5351C97.9239 41.5588 96.4296 41.2157 95.0801 40.5351C93.8645 39.9321 92.8717 38.9586 92.245 37.7551C91.6265 36.5627 91.3058 35.2382 91.3101 33.895ZM104.71 30.5351C104.73 30.0443 104.652 29.5546 104.48 29.0944C104.308 28.6343 104.047 28.2127 103.71 27.8549C103.385 27.5244 102.995 27.2648 102.565 27.0927C102.135 26.9206 101.673 26.8396 101.21 26.8549C100.228 26.8441 99.2731 27.1768 98.5101 27.7951C97.6552 28.5178 97.0197 29.465 96.6751 30.53C96.2647 31.583 96.043 32.7001 96.0201 33.83C95.9569 34.9105 96.3154 35.9735 97.0201 36.7951C97.3408 37.1526 97.7355 37.436 98.1767 37.6259C98.6178 37.8158 99.095 37.9076 99.5751 37.895C100.208 37.8949 100.831 37.7449 101.394 37.4572C101.957 37.1695 102.444 36.7523 102.815 36.2399C104.093 34.6174 104.763 32.5996 104.71 30.5351Z" fill="white"/>
<path d="M110.98 41.1149L115.98 17.1149H120.695L119.01 25.1401C119.743 24.5587 120.556 24.087 121.425 23.7399C122.21 23.4533 123.04 23.3111 123.875 23.32C124.699 23.2862 125.521 23.4341 126.283 23.7529C127.044 24.0717 127.726 24.5537 128.28 25.165C129.38 26.395 129.932 28.1833 129.935 30.53C129.937 32.0996 129.673 33.6584 129.155 35.1401C128.721 36.4829 128.013 37.7208 127.075 38.7751C126.303 39.6351 125.375 40.3407 124.34 40.8549C123.404 41.3046 122.378 41.5372 121.34 41.5351C120.203 41.5885 119.076 41.3063 118.098 40.7241C117.12 40.1418 116.335 39.2849 115.84 38.2599L115.23 41.1249L110.98 41.1149ZM117.32 34.0251C117.279 35.0676 117.637 36.0865 118.32 36.8749C118.606 37.2167 118.963 37.4919 119.366 37.6811C119.77 37.8702 120.209 37.9687 120.655 37.9699C121.48 37.9541 122.275 37.654 122.905 37.1201C123.731 36.3876 124.347 35.449 124.69 34.4001C125.157 33.1996 125.4 31.9232 125.405 30.6349C125.466 29.5783 125.123 28.538 124.445 27.725C124.16 27.3903 123.805 27.1222 123.405 26.9399C123.005 26.7576 122.569 26.6656 122.13 26.6701C121.528 26.6798 120.938 26.8337 120.408 27.1191C119.878 27.4045 119.424 27.8129 119.085 28.31C117.862 29.9581 117.24 31.9746 117.32 34.0251Z" fill="white"/>
<path d="M138.235 28.6501L133.65 28.2599C134.128 26.7716 135.096 25.4888 136.395 24.6201C137.695 23.7501 139.422 23.3133 141.575 23.31C143.815 23.31 145.47 23.7616 146.54 24.665C147.042 25.0557 147.448 25.5565 147.726 26.1286C148.005 26.7007 148.148 27.3289 148.145 27.965C148.143 28.5245 148.096 29.0829 148.005 29.6349C147.912 30.2249 147.587 31.7751 147.03 34.2851C146.667 35.7124 146.438 37.1703 146.345 38.6401C146.36 39.4792 146.491 40.312 146.735 41.1149H142.175C141.989 40.4744 141.874 39.8157 141.83 39.1501C141.169 39.8952 140.361 40.4946 139.455 40.9101C138.611 41.3088 137.689 41.5186 136.755 41.5251C136.095 41.5462 135.438 41.4313 134.823 41.1879C134.209 40.9445 133.652 40.5777 133.185 40.11C132.715 39.63 132.348 39.0592 132.105 38.4326C131.863 37.8059 131.751 37.1365 131.775 36.465C131.738 35.7268 131.857 34.989 132.124 34.2997C132.391 33.6105 132.8 32.9854 133.325 32.465C134.355 31.465 136.189 30.8634 138.825 30.6601C140.345 30.5946 141.853 30.3699 143.325 29.9899C143.495 29.4825 143.594 28.9544 143.62 28.4201C143.622 28.1772 143.569 27.9369 143.464 27.7177C143.359 27.4985 143.205 27.3061 143.015 27.155C142.49 26.7842 141.852 26.6074 141.21 26.655C140.508 26.6093 139.809 26.7841 139.21 27.155C138.718 27.5214 138.372 28.0516 138.235 28.6501ZM142.705 33.0099C142.333 33.1021 141.956 33.1722 141.575 33.2199C139.219 33.5066 137.68 33.9217 136.96 34.465C136.713 34.6479 136.513 34.888 136.379 35.165C136.245 35.4419 136.18 35.7475 136.19 36.0551C136.186 36.3145 136.236 36.5718 136.338 36.8105C136.439 37.0491 136.59 37.2637 136.78 37.4401C136.989 37.6321 137.235 37.7807 137.501 37.8776C137.768 37.9746 138.052 38.018 138.335 38.0051C139.033 38.0091 139.721 37.8371 140.335 37.5051C140.919 37.2007 141.407 36.7402 141.745 36.175C142.142 35.3766 142.421 34.5241 142.57 33.645L142.705 33.0099Z" fill="white"/>
<path d="M153.925 23.7199H158.645L155.545 38.445C154.675 42.6517 153.929 45.2016 153.305 46.0949C152.365 47.4816 150.865 48.175 148.805 48.175C147.606 48.1966 146.411 48.0279 145.265 47.675L146 43.7951C146.621 43.9605 147.258 44.0527 147.9 44.07C148.195 44.0789 148.487 44.0168 148.752 43.8888C149.018 43.7609 149.249 43.5708 149.425 43.3349C149.809 42.8449 150.309 41.1201 150.925 38.1601L153.925 23.7199ZM155.3 17.1049H160.02L159.135 21.3649H154.415L155.3 17.1049Z" fill="white"/>
<path d="M166.21 28.6501L161.625 28.2599C162.099 26.771 163.065 25.4876 164.365 24.6201C165.668 23.7501 167.397 23.3133 169.55 23.31C171.79 23.31 173.445 23.7616 174.515 24.665C175.017 25.0557 175.423 25.5565 175.701 26.1286C175.979 26.7007 176.123 27.3289 176.12 27.965C176.115 28.5244 176.069 29.0826 175.98 29.6349C175.884 30.2249 175.55 31.7751 174.98 34.2851C174.616 35.7124 174.385 37.1702 174.29 38.6401C174.304 39.4796 174.437 40.3128 174.685 41.1149H170.115C169.929 40.4744 169.813 39.8157 169.77 39.1501C169.109 39.8952 168.3 40.4946 167.395 40.9101C166.55 41.3088 165.629 41.5186 164.695 41.5251C164.035 41.5468 163.377 41.4323 162.763 41.1889C162.149 40.9455 161.591 40.5782 161.125 40.11C160.655 39.63 160.288 39.0592 160.045 38.4326C159.803 37.8059 159.69 37.1365 159.715 36.465C159.678 35.7268 159.797 34.989 160.064 34.2997C160.331 33.6105 160.74 32.9854 161.265 32.465C162.295 31.465 164.137 30.8634 166.79 30.6601C168.309 30.5946 169.818 30.3699 171.29 29.9899C171.459 29.4825 171.559 28.9544 171.585 28.4201C171.587 28.1766 171.533 27.9358 171.427 27.7165C171.322 27.4972 171.167 27.305 170.975 27.155C170.452 26.7841 169.815 26.6073 169.175 26.655C168.473 26.6093 167.773 26.7841 167.175 27.155C166.686 27.5231 166.344 28.0531 166.21 28.6501ZM170.68 33.0099C170.308 33.1016 169.931 33.1717 169.55 33.2199C167.19 33.5049 165.655 33.92 164.93 34.465C164.683 34.6485 164.484 34.8889 164.35 35.1657C164.216 35.4425 164.151 35.7477 164.16 36.0551C164.157 36.3143 164.208 36.5713 164.309 36.8098C164.411 37.0482 164.561 37.2629 164.75 37.4401C165.175 37.8272 165.736 38.0303 166.31 38.0051C167.008 38.0084 167.696 37.8365 168.31 37.5051C168.893 37.2006 169.379 36.74 169.715 36.175C170.117 35.3779 170.397 34.525 170.545 33.645L170.68 33.0099Z" fill="white"/>
<path d="M179.015 33.3349L183.72 33.09C183.784 34.5834 184.04 35.5934 184.49 36.1201C185.21 36.9701 186.544 37.395 188.49 37.395C190.105 37.395 191.275 37.11 191.99 36.53C192.322 36.2897 192.592 35.9749 192.78 35.611C192.967 35.2471 193.067 34.8444 193.07 34.435C193.071 34.0864 192.991 33.7423 192.838 33.4294C192.685 33.1164 192.461 32.843 192.185 32.6301C191.772 32.2701 190.634 31.6867 188.77 30.8801C187.365 30.2993 186.002 29.6225 184.69 28.8549C183.859 28.3308 183.171 27.6073 182.69 26.7499C182.183 25.8224 181.929 24.777 181.955 23.7199C181.932 22.7734 182.116 21.8332 182.495 20.9653C182.873 20.0973 183.436 19.3225 184.145 18.695C185.609 17.3617 187.727 16.695 190.5 16.695C193.274 16.695 195.455 17.3617 197.045 18.695C197.811 19.3509 198.432 20.1582 198.87 21.0661C199.308 21.974 199.553 22.9626 199.59 23.9699L194.86 24.185C194.807 23.176 194.36 22.2282 193.615 21.5451C192.905 20.9351 191.857 20.6301 190.47 20.6301C189.084 20.6301 188.109 20.87 187.545 21.35C187.268 21.5642 187.044 21.8404 186.892 22.1564C186.74 22.4724 186.664 22.8195 186.67 23.1701C186.664 23.4959 186.732 23.8188 186.871 24.1137C187.01 24.4086 187.215 24.6675 187.47 24.8701C188.573 25.6429 189.767 26.2761 191.025 26.7551C193.792 27.9451 195.55 28.9116 196.3 29.655C196.859 30.2006 197.297 30.857 197.588 31.582C197.878 32.307 198.013 33.0845 197.985 33.8649C197.992 34.898 197.772 35.92 197.34 36.8583C196.908 37.7967 196.275 38.6287 195.485 39.2951C193.819 40.7951 191.485 41.5451 188.485 41.5451C186.643 41.59 184.812 41.2351 183.12 40.5051C181.752 39.9405 180.621 38.9191 179.92 37.6149C179.266 36.2863 178.955 34.8148 179.015 33.3349Z" fill="white"/>
<path d="M218.785 41.1149H214.36L213.51 30.0451L208.205 41.1149H203.845L201.67 23.7199H205.845L207.055 35.3849L212.48 23.7199H216.755L217.34 35.3849L222.73 23.7199H227.45L218.785 41.1149Z" fill="white"/>
<path d="M233.33 28.6501L228.74 28.2599C229.218 26.7716 230.186 25.4888 231.485 24.6201C232.789 23.7501 234.517 23.3133 236.67 23.31C238.907 23.31 240.56 23.7616 241.63 24.665C242.132 25.0557 242.538 25.5565 242.816 26.1286C243.094 26.7007 243.238 27.3289 243.235 27.965C243.233 28.5245 243.186 29.0829 243.095 29.6349C243.005 30.2249 242.672 31.7751 242.095 34.2851C241.735 35.7129 241.505 37.1706 241.41 38.6401C241.424 39.4796 241.557 40.3128 241.805 41.1149H237.235C237.047 40.4749 236.931 39.816 236.89 39.1501C236.228 39.8942 235.42 40.4934 234.515 40.9101C233.669 41.3093 232.746 41.5192 231.81 41.5251C231.15 41.5462 230.492 41.4313 229.878 41.1879C229.264 40.9445 228.707 40.5777 228.24 40.11C227.771 39.6297 227.404 39.0587 227.162 38.4321C226.921 37.8054 226.81 37.1362 226.835 36.465C226.798 35.7273 226.917 34.99 227.183 34.301C227.449 33.6119 227.857 32.9864 228.38 32.465C229.417 31.465 231.26 30.8634 233.91 30.6601C235.429 30.5951 236.938 30.3704 238.41 29.9899C238.582 29.4831 238.681 28.9547 238.705 28.4201C238.708 28.177 238.655 27.9363 238.55 27.717C238.445 27.4976 238.291 27.3053 238.1 27.155C237.576 26.7849 236.94 26.6082 236.3 26.655C235.598 26.6086 234.898 26.7835 234.3 27.155C233.806 27.5192 233.462 28.0506 233.33 28.6501ZM237.8 33.0099C237.428 33.1016 237.051 33.1717 236.67 33.2199C234.31 33.5066 232.77 33.9217 232.05 34.465C231.803 34.6479 231.603 34.888 231.469 35.165C231.335 35.4419 231.27 35.7475 231.28 36.0551C231.276 36.3145 231.326 36.5718 231.427 36.8105C231.529 37.0491 231.68 37.2637 231.87 37.4401C232.079 37.6319 232.325 37.7804 232.591 37.8774C232.858 37.9743 233.142 38.0177 233.425 38.0051C234.123 38.0097 234.811 37.8377 235.425 37.5051C236.01 37.202 236.499 36.7412 236.835 36.175C237.232 35.376 237.512 34.5239 237.665 33.645L237.8 33.0099Z" fill="white"/>
<path d="M248.84 23.72H253.29L252.915 25.5051C253.716 24.8137 254.616 24.2457 255.585 23.8201C256.434 23.4807 257.341 23.3108 258.255 23.3201C259.082 23.2889 259.906 23.4418 260.667 23.7678C261.428 24.0938 262.107 24.5847 262.655 25.2051C263.762 26.4617 264.315 28.3352 264.315 30.8252C264.395 33.7383 263.371 36.574 261.45 38.7651C260.745 39.6274 259.859 40.3228 258.853 40.8018C257.848 41.2807 256.749 41.5312 255.635 41.5352C254.593 41.5826 253.557 41.3474 252.637 40.8545C251.717 40.3616 250.948 39.6293 250.41 38.7351L248.525 47.76H243.825L248.84 23.72ZM251.67 33.6951C251.602 34.8342 251.958 35.9582 252.67 36.8501C252.953 37.1975 253.308 37.478 253.712 37.6716C254.116 37.8653 254.557 37.9671 255.005 37.97C255.828 37.9536 256.621 37.6554 257.25 37.125C258.096 36.3758 258.718 35.4067 259.045 34.3252C259.491 33.1674 259.731 31.9407 259.755 30.7002C259.831 29.6183 259.497 28.5474 258.82 27.7002C258.526 27.3622 258.16 27.0936 257.749 26.9138C257.339 26.734 256.893 26.6473 256.445 26.6602C255.539 26.6642 254.667 27.0065 254 27.6201C253.181 28.3835 252.588 29.3572 252.285 30.4351C251.916 31.484 251.71 32.5835 251.675 33.6951H251.67Z" fill="white"/>
<path d="M30.9002 58.025C45.8423 58.025 57.9552 45.912 57.9552 30.97C57.9552 16.0279 45.8423 3.91498 30.9002 3.91498C15.9582 3.91498 3.84521 16.0279 3.84521 30.97C3.84521 45.912 15.9582 58.025 30.9002 58.025Z" fill="white"/>
<path d="M30.9 60.8C47.4133 60.8 60.8 47.4133 60.8 30.9C60.8 14.3867 47.4133 1 30.9 1C14.3867 1 1 14.3867 1 30.9C1 47.4133 14.3867 60.8 30.9 60.8Z" stroke="white" stroke-miterlimit="10"/>
<path d="M57.9552 30.955C57.9585 35.6253 56.7516 40.2167 54.4523 44.2817C52.153 48.3467 48.8396 51.7467 44.8352 54.1501C42.5491 55.5367 40.0659 56.5683 37.4702 57.2099C35.3218 57.7483 33.115 58.0188 30.9002 58.0151C28.4209 58.0189 25.9529 57.6824 23.5652 57.0151C17.9028 55.4168 12.9152 52.0175 9.35706 47.3317C5.79895 42.6459 3.8641 36.9287 3.84521 31.0451V30.9599C3.84521 30.9599 15.6252 31.2401 20.7152 33.0351C25.8052 34.8301 32.0752 35.535 34.1752 33.84C36.7552 31.75 36.9752 31.17 42.4402 32.34C46.6252 33.235 48.8152 31.99 49.6402 31.34C49.9327 31.1013 50.2976 30.9691 50.6752 30.965L57.9552 30.955Z" fill="#003156"/>
<path d="M27.6853 25.86C33.2827 25.86 37.8203 21.3224 37.8203 15.725C37.8203 10.1276 33.2827 5.59003 27.6853 5.59003C22.0879 5.59003 17.5503 10.1276 17.5503 15.725C17.5503 21.3224 22.0879 25.86 27.6853 25.86Z" fill="#E7001C"/>
<path d="M51.5003 27.5849L50.3203 28.8C50.3203 28.8 48.2853 31.3651 42.7653 30.1801C37.3303 29.0101 37.1103 29.5851 34.5403 31.6801C32.4553 33.3751 26.2203 32.68 21.1553 30.8801C17.7603 29.6851 11.3703 29.1651 7.53027 28.9501C10.7753 26.5101 15.8703 25.0999 18.2803 24.1349C19.6903 23.5749 21.2253 21.5899 21.8903 21.2699C23.9203 20.2699 25.1553 18.5701 26.0002 17.5151C26.697 16.5689 27.7393 15.9363 28.9003 15.7551C30.2108 16.2649 31.6649 16.2649 32.9754 15.7551C33.3636 15.7265 33.7536 15.7764 34.1221 15.9018C34.4906 16.0272 34.83 16.2256 35.1202 16.485C35.8802 17.255 36.6203 17.9851 37.3253 18.6401C46.2953 27.0251 51.5003 27.5849 51.5003 27.5849Z" fill="#003156"/>
<path d="M37.3252 18.6101C37.2041 18.832 37.0305 19.021 36.8196 19.1604C36.6087 19.2999 36.3668 19.3856 36.1151 19.4102C35.7701 19.1702 35.2552 18.41 33.8452 19.21C33.3452 21.94 32.8901 21.8401 32.8901 21.8401C32.8901 21.8401 32.0001 19.9652 30.8901 19.5552C30.8201 21.4652 30.0702 22.3501 30.0702 22.3501C29.9116 21.5594 29.4775 20.8507 28.8452 20.3501C27.6902 22.2851 25.0602 23.9751 24.9152 24.1001C24.9152 24.0401 25.8152 21.9802 25.9802 21.6502C27.6552 18.3902 21.8701 21.2351 21.8701 21.2351C23.4297 20.2082 24.817 18.9407 25.9802 17.48C26.7352 16.535 27.8401 15.4801 29.0101 15.7451C30.4101 16.0851 31.5101 15.5801 32.8751 15.6201C33.6944 15.5929 34.4923 15.8851 35.1002 16.4351C35.8802 17.2251 36.6152 17.9551 37.3252 18.6101Z" fill="white"/>
<mask id="mask0_183_74" style="mask-type:luminance" maskUnits="userSpaceOnUse" x="4" y="30" width="53" height="28">
<path d="M56.96 30.9551C56.9625 35.4542 55.7995 39.8772 53.5844 43.7932C51.3692 47.7092 48.1774 50.9844 44.32 53.3C42.1183 54.6317 39.728 55.6228 37.23 56.24C35.1607 56.7624 33.0341 57.0244 30.8999 57.02C28.5121 57.0201 26.1353 56.6956 23.835 56.0552C18.3828 54.5165 13.5797 51.2445 10.1519 46.7341C6.72398 42.2238 4.85764 36.7203 4.83496 31.0552V30.97C4.83496 30.97 16.185 31.24 21.085 32.97C25.985 34.7 32.0299 35.3851 34.0449 33.7451C36.5449 31.7451 36.7499 31.1752 42.0099 32.3052C47.3549 33.4552 49.325 30.97 49.325 30.97L56.96 30.9551Z" fill="white"/>
</mask>
<g mask="url(#mask0_183_74)">
<path d="M32.9101 61.715C35.0833 61.715 36.8451 59.9533 36.8451 57.78C36.8451 55.6068 35.0833 53.845 32.9101 53.845C30.7369 53.845 28.9751 55.6068 28.9751 57.78C28.9751 59.9533 30.7369 61.715 32.9101 61.715Z" stroke="white" stroke-width="0.5" stroke-miterlimit="10"/>
<path d="M32.9098 59.745C33.9951 59.745 34.8748 58.8652 34.8748 57.78C34.8748 56.6948 33.9951 55.815 32.9098 55.815C31.8246 55.815 30.9448 56.6948 30.9448 57.78C30.9448 58.8652 31.8246 59.745 32.9098 59.745Z" stroke="white" stroke-width="0.5" stroke-miterlimit="10"/>
<path d="M38.3701 60.0151C38.0313 60.8491 37.5043 61.5935 36.8302 62.1901C35.7546 63.1554 34.3604 63.6896 32.9152 63.6901C31.3504 63.6901 29.8498 63.0683 28.7433 61.9619C27.6368 60.8554 27.0151 59.3548 27.0151 57.79C27.0151 57.0154 27.1678 56.2484 27.4644 55.5329C27.7609 54.8174 28.1956 54.1673 28.7435 53.6198C29.2915 53.0723 29.9419 52.6382 30.6577 52.3422C31.3735 52.0463 32.1406 51.8943 32.9152 51.895C33.7603 51.8944 34.5956 52.0758 35.3644 52.4269C36.1331 52.7781 36.8172 53.2909 37.3701 53.9301" stroke="white" stroke-width="0.5" stroke-miterlimit="10"/>
<path d="M40.39 60.225C40.1025 61.1045 39.6606 61.9257 39.0851 62.6501C38.6505 63.1968 38.1462 63.6843 37.5851 64.1C36.2304 65.1017 34.5898 65.6416 32.905 65.6401C30.8191 65.6401 28.8186 64.8113 27.3436 63.3364C25.8687 61.8614 25.04 59.861 25.04 57.7751C25.04 55.6892 25.8687 53.6885 27.3436 52.2136C28.8186 50.7386 30.8191 49.9101 32.905 49.9101C34.944 49.907 36.9041 50.6977 38.37 52.1149" stroke="white" stroke-width="0.5" stroke-miterlimit="10"/>
<path d="M39.62 50.5901C37.8044 48.8852 35.4057 47.9389 32.915 47.945C30.3075 47.945 27.8067 48.9806 25.9624 50.8239C24.1181 52.6673 23.0814 55.1676 23.0801 57.7751C23.0801 60.3835 24.1163 62.885 25.9607 64.7295C27.8051 66.5739 30.3066 67.6101 32.915 67.6101C34.9642 67.6153 36.9625 66.9731 38.625 65.7751C39.1705 65.3954 39.6735 64.9577 40.125 64.4699C40.6047 63.964 41.0257 63.4056 41.38 62.8051C41.8465 62.0251 42.2017 61.1836 42.4351 60.3051C42.6484 59.4889 42.7576 58.6488 42.76 57.8051C42.7611 57.3838 42.7344 56.9629 42.6801 56.5451" stroke="white" stroke-width="0.5" stroke-miterlimit="10"/>
<path d="M44.2052 54.355C44.4551 55.168 44.6128 56.0066 44.6752 56.855C44.7002 57.155 44.7102 57.45 44.7102 57.75C44.7113 58.5648 44.6275 59.3776 44.4602 60.175C44.286 61.0142 44.0176 61.8311 43.6602 62.6101C43.3824 63.2377 43.0476 63.8385 42.6602 64.405C42.2928 64.949 41.8778 65.4595 41.4202 65.9301C40.9623 66.4099 40.4601 66.845 39.9202 67.2299C37.8983 68.7383 35.4427 69.5522 32.9202 69.55C29.7906 69.55 26.7892 68.3069 24.5763 66.094C22.3634 63.881 21.1201 60.8795 21.1201 57.75C21.1214 54.6213 22.3653 51.6212 24.5781 49.4094C26.7909 47.1975 29.7915 45.9551 32.9202 45.9551C35.976 45.9477 38.9136 47.1357 41.1052 49.2651" stroke="white" stroke-width="0.5" stroke-miterlimit="10"/>
<path d="M48.1201 62.705C50.2933 62.705 52.0551 60.9433 52.0551 58.77C52.0551 56.5968 50.2933 54.835 48.1201 54.835C45.9468 54.835 44.1851 56.5968 44.1851 58.77C44.1851 60.9433 45.9468 62.705 48.1201 62.705Z" stroke="white" stroke-width="0.5" stroke-miterlimit="10"/>
<path d="M48.1203 60.735C49.2055 60.735 50.0853 59.8552 50.0853 58.77C50.0853 57.6848 49.2055 56.805 48.1203 56.805C47.035 56.805 46.1553 57.6848 46.1553 58.77C46.1553 59.8552 47.035 60.735 48.1203 60.735Z" stroke="white" stroke-width="0.5" stroke-miterlimit="10"/>
<path d="M48.1202 64.67C51.3787 64.67 54.0202 62.0285 54.0202 58.77C54.0202 55.5115 51.3787 52.87 48.1202 52.87C44.8617 52.87 42.2202 55.5115 42.2202 58.77C42.2202 62.0285 44.8617 64.67 48.1202 64.67Z" stroke="white" stroke-width="0.5" stroke-miterlimit="10"/>
<path d="M48.1204 66.635C52.4641 66.635 55.9854 63.1137 55.9854 58.77C55.9854 54.4263 52.4641 50.905 48.1204 50.905C43.7767 50.905 40.2554 54.4263 40.2554 58.77C40.2554 63.1137 43.7767 66.635 48.1204 66.635Z" stroke="white" stroke-width="0.5" stroke-miterlimit="10"/>
<path d="M48.1202 68.605C53.5519 68.605 57.9552 64.2017 57.9552 58.77C57.9552 53.3383 53.5519 48.935 48.1202 48.935C42.6884 48.935 38.2852 53.3383 38.2852 58.77C38.2852 64.2017 42.6884 68.605 48.1202 68.605Z" stroke="white" stroke-width="0.5" stroke-miterlimit="10"/>
<path d="M48.1198 70.57C54.6368 70.57 59.9198 65.287 59.9198 58.77C59.9198 52.2531 54.6368 46.97 48.1198 46.97C41.6029 46.97 36.3198 52.2531 36.3198 58.77C36.3198 65.287 41.6029 70.57 48.1198 70.57Z" stroke="white" stroke-width="0.5" stroke-miterlimit="10"/>
<path d="M11.7402 49.045V49.04" stroke="white" stroke-width="0.5" stroke-miterlimit="10"/>
<path d="M10.885 51.395C10.3635 52.2252 9.64358 52.9126 8.79004 53.395C8.19706 53.7333 7.54859 53.9638 6.875 54.0751C6.54478 54.1325 6.21018 54.1609 5.875 54.1601C4.31109 54.1601 2.81116 53.5392 1.70484 52.4338C0.598515 51.3284 -0.0235749 49.829 -0.0249002 48.2651C-0.0255572 47.4899 0.126523 46.722 0.422732 46.0056C0.71894 45.2892 1.15337 44.6382 1.7013 44.0898C2.24923 43.5414 2.89994 43.1063 3.61609 42.8095C4.33224 42.5127 5.09978 42.3601 5.875 42.3601C6.73073 42.3586 7.57655 42.5435 8.35364 42.9018C9.13074 43.2601 9.82049 43.7833 10.375 44.435" stroke="white" stroke-width="0.5" stroke-miterlimit="10"/>
<path d="M11.9002 43.1701C11.1632 42.2966 10.2446 41.5944 9.20826 41.1125C8.17196 40.6306 7.043 40.3806 5.90015 40.3801C3.81376 40.3814 1.81333 41.2112 0.338502 42.687C-1.13633 44.1627 -1.96484 46.1636 -1.96484 48.2499C-1.96484 50.3359 -1.13623 52.3365 0.338746 53.8115C1.81372 55.2864 3.81422 56.1149 5.90015 56.1149C6.34926 56.1145 6.7975 56.0761 7.24012 55.9999C7.88813 55.8867 8.51962 55.6936 9.12012 55.425C9.75507 55.1411 10.3488 54.7728 10.8851 54.33C11.6506 53.7032 12.2917 52.9384 12.7752 52.0751" stroke="white" stroke-width="0.5" stroke-miterlimit="10"/>
<path d="M13.6349 42.1801C12.7158 41.0051 11.5412 40.0548 10.2001 39.4016C8.85896 38.7483 7.38665 38.4093 5.8949 38.4101C4.60335 38.4108 3.32458 38.6657 2.1316 39.1606C0.938609 39.6554 -0.145181 40.3804 -1.05798 41.2941C-1.97078 42.2079 -2.6947 43.2925 -3.18835 44.486C-3.682 45.6795 -3.93571 46.9584 -3.93506 48.2499C-3.93506 50.857 -2.89939 53.3574 -1.05591 55.2009C0.787577 57.0443 3.28782 58.08 5.8949 58.08C6.57737 58.0824 7.2581 58.0102 7.92493 57.8649C8.57365 57.7319 9.20699 57.5325 9.81495 57.27C10.4176 57.0037 10.9935 56.6807 11.5349 56.3051C12.0984 55.908 12.6195 55.454 13.09 54.9501C13.7317 54.263 14.2706 53.4865 14.6899 52.645" stroke="white" stroke-width="0.5" stroke-miterlimit="10"/>
<path d="M17.2451 51.46V51.455" stroke="white" stroke-width="0.5" stroke-miterlimit="10"/>
<path d="M15.5551 41.455C14.4692 39.9005 13.0237 38.6313 11.3418 37.7556C9.65989 36.8798 7.79129 36.4232 5.89503 36.425C4.34524 36.425 2.81072 36.7305 1.37904 37.3239C-0.0526528 37.9173 -1.35345 38.7869 -2.44885 39.8832C-3.54425 40.9796 -4.41283 42.2809 -5.005 43.7131C-5.59717 45.1453 -5.90121 46.6801 -5.8999 48.2299C-5.8999 51.3581 -4.6573 54.3583 -2.44531 56.5703C-0.233315 58.7822 2.7668 60.0251 5.89503 60.0251C6.92846 60.0261 7.95751 59.8899 8.95509 59.6201C9.61562 59.4475 10.2584 59.2131 10.875 58.9201C11.4773 58.6363 12.0545 58.3018 12.6001 57.9201C13.135 57.5435 13.6369 57.122 14.1001 56.6601C14.5797 56.2007 15.0164 55.6986 15.405 55.1601" stroke="white" stroke-width="0.5" stroke-miterlimit="10"/>
<path d="M31.965 51.955H31.96" stroke="white" stroke-width="0.5" stroke-miterlimit="10"/>
<path d="M29.8301 46.385C30.1686 45.7614 30.6693 45.241 31.2792 44.8784C31.8891 44.5158 32.5855 44.3247 33.295 44.3251C34.0568 44.3237 34.8026 44.5441 35.441 44.9597C36.0795 45.3752 36.583 45.9678 36.89 46.665" stroke="white" stroke-width="0.5" stroke-miterlimit="10"/>
<path d="M31.8854 53.985H31.8804" stroke="white" stroke-width="0.5" stroke-miterlimit="10"/>
<path d="M27.9751 45.7001C28.4573 44.6989 29.2124 43.854 30.1536 43.2631C31.0948 42.6722 32.1837 42.3592 33.295 42.36C34.7767 42.3602 36.2039 42.9176 37.2933 43.9218C38.3827 44.926 39.0545 46.3033 39.1751 47.78" stroke="white" stroke-width="0.5" stroke-miterlimit="10"/>
<path d="M34.2452 54.08H34.2402" stroke="white" stroke-width="0.5" stroke-miterlimit="10"/>
<path d="M26.5752 44.1701C27.2751 43.0148 28.2614 42.0596 29.4387 41.3974C30.616 40.7352 31.9444 40.3883 33.2952 40.3901C34.3293 40.3881 35.3536 40.59 36.3096 40.9843C37.2655 41.3787 38.1343 41.9579 38.8662 42.6884C39.5981 43.419 40.1789 44.2864 40.5751 45.2417C40.9713 46.1969 41.1752 47.221 41.1752 48.2551C41.1761 48.5897 41.1528 48.9239 41.1052 49.2551" stroke="white" stroke-width="0.5" stroke-miterlimit="10"/>
<path d="M36.8501 55.27V55.265" stroke="white" stroke-width="0.5" stroke-miterlimit="10"/>
<path d="M25.0103 42.955C25.8987 41.5636 27.1237 40.4188 28.5718 39.6262C30.0199 38.8335 31.6444 38.4187 33.2953 38.4201C35.2004 38.418 37.065 38.9692 38.6627 40.0068C40.2604 41.0444 41.5224 42.5238 42.2953 44.2651" stroke="white" stroke-width="0.5" stroke-miterlimit="10"/>
<path d="M23.3203 42.0551C24.3734 40.3397 25.8489 38.9231 27.6058 37.9409C29.3628 36.9586 31.3425 36.4436 33.3554 36.445C35.3778 36.4427 37.3666 36.9613 39.1304 37.9509C40.8941 38.9405 42.3733 40.3676 43.4253 42.0949" stroke="white" stroke-width="0.5" stroke-miterlimit="10"/>
<path d="M14.335 40.0051C15.9321 38.969 17.7962 38.42 19.7 38.425C21.5674 38.4214 23.3966 38.9541 24.97 39.9599" stroke="white" stroke-width="0.5" stroke-miterlimit="10"/>
<path d="M12.8252 38.7002C14.8384 37.2305 17.2675 36.4405 19.7601 36.445C22.1958 36.4387 24.5722 37.1959 26.5552 38.6101" stroke="white" stroke-width="0.5" stroke-miterlimit="10"/>
<path d="M40.8501 39.1401C41.6193 38.9524 42.4083 38.8583 43.2001 38.8601C44.1778 38.8594 45.1501 39.0043 46.0851 39.29" stroke="white" stroke-width="0.5" stroke-miterlimit="10"/>
<path d="M38.7803 37.7651C40.2079 37.1784 41.7368 36.8777 43.2803 36.8801C45.0081 36.8747 46.7156 37.2521 48.2803 37.9851" stroke="white" stroke-width="0.5" stroke-miterlimit="10"/>
<path d="M49.6401 47.0651C49.9494 46.3746 50.4521 45.7882 51.0874 45.3774C51.7228 44.9665 52.4636 44.7486 53.2202 44.7499C53.7367 44.7493 54.2483 44.8506 54.7257 45.0478C55.2031 45.245 55.6369 45.5344 56.0023 45.8994C56.3678 46.2644 56.6578 46.6979 56.8556 47.175C57.0534 47.6521 57.1552 48.1636 57.1552 48.6801C57.1598 49.3577 56.9875 50.0245 56.6552 50.6149C56.329 51.1992 55.8548 51.6872 55.2802 52.03C54.665 52.4128 53.9548 52.6154 53.2302 52.6149C53.1553 52.62 53.08 52.62 53.0051 52.6149C52.4628 52.5854 51.9326 52.4435 51.448 52.1982C50.9634 51.9529 50.5351 51.6097 50.1902 51.1901" stroke="white" stroke-width="0.5" stroke-miterlimit="10"/>
<path d="M51.4399 49.5151C51.6016 49.8522 51.8545 50.1372 52.17 50.3378C52.4856 50.5385 52.8511 50.6467 53.225 50.6501C53.3527 50.6494 53.48 50.636 53.605 50.6101C53.9544 50.5432 54.2787 50.3822 54.5431 50.1442C54.8075 49.9063 55.0019 49.6004 55.105 49.26C55.1656 49.0744 55.196 48.8803 55.1949 48.685C55.1885 48.1649 54.9798 47.6677 54.6129 47.299C54.2461 46.9303 53.75 46.719 53.23 46.7099C52.9228 46.7087 52.6197 46.7808 52.3458 46.9199C52.0719 47.059 51.8351 47.2612 51.6549 47.51" stroke="white" stroke-width="0.5" stroke-miterlimit="10"/>
<path d="M49.175 52.955C50.0029 53.7479 51.0466 54.2784 52.1751 54.4799C52.5182 54.5422 52.8663 54.5742 53.2151 54.5751C53.6992 54.5769 54.1814 54.5162 54.65 54.395C55.298 54.2344 55.9137 53.9637 56.4701 53.5949C57.0287 53.2195 57.5218 52.755 57.9301 52.2199C58.697 51.1973 59.1112 49.9533 59.1101 48.675C59.1101 47.9004 58.9575 47.1334 58.6609 46.4179C58.3643 45.7024 57.9296 45.0523 57.3817 44.5048C56.8338 43.9574 56.1833 43.5232 55.4675 43.2272C54.7517 42.9313 53.9846 42.7793 53.2101 42.78C51.9418 42.7791 50.707 43.1874 49.6892 43.944C48.6714 44.7007 47.9247 45.7652 47.5601 46.9799" stroke="white" stroke-width="0.5" stroke-miterlimit="10"/>
<path d="M45.79 51.26V51.255" stroke="white" stroke-width="0.5" stroke-miterlimit="10"/>
<path d="M46.6753 53.05C47.1334 53.7298 47.6933 54.3352 48.3353 54.8449C49.1669 55.5123 50.1293 55.9978 51.1603 56.27C51.8308 56.4577 52.5241 56.552 53.2203 56.55H53.5853C54.2525 56.5202 54.9129 56.4042 55.5503 56.205C56.1804 56.0096 56.7835 55.7359 57.3453 55.3901C57.9333 55.0286 58.4712 54.5915 58.9453 54.09C60.3216 52.629 61.0872 50.6972 61.0853 48.6901C61.0853 46.6037 60.2568 44.6027 58.782 43.1269C57.3072 41.6511 55.3067 40.8213 53.2203 40.82C51.3784 40.8198 49.595 41.4665 48.1813 42.6472C46.7676 43.8278 45.8134 45.4675 45.4854 47.28" stroke="white" stroke-width="0.5" stroke-miterlimit="10"/>
<path d="M44.8601 53.8549C45.2072 54.418 45.6109 54.9441 46.0651 55.425C46.5685 55.9537 47.1247 56.4295 47.7251 56.8449C48.4037 57.2955 49.1339 57.6633 49.9 57.9401C50.5924 58.1863 51.3102 58.354 52.04 58.4401C52.4314 58.4889 52.8257 58.5121 53.2201 58.5099C53.4851 58.5099 53.755 58.51 54.015 58.475C54.6734 58.4231 55.325 58.3058 55.9601 58.1249C56.6137 57.9352 57.2456 57.6771 57.8451 57.3549C58.483 57.0194 59.0802 56.6119 59.625 56.1401C60.7024 55.2177 61.5669 54.0726 62.1591 52.7839C62.7512 51.4951 63.0569 50.0933 63.0551 48.675C63.0551 46.0666 62.0189 43.5651 60.1744 41.7206C58.33 39.8762 55.8285 38.84 53.2201 38.84C50.7397 38.8418 48.3514 39.7804 46.5333 41.4677C44.7153 43.155 43.6016 45.4667 43.415 47.9401" stroke="white" stroke-width="0.5" stroke-miterlimit="10"/>
<path d="M43.4052 55.2199C43.7862 55.7985 44.2197 56.3409 44.7002 56.84C45.1728 57.336 45.688 57.7894 46.2401 58.195C47.2868 58.9629 48.4523 59.5541 49.6902 59.945C50.3423 60.1503 51.0117 60.2959 51.6902 60.3801C52.1875 60.4456 52.6886 60.4788 53.1902 60.4799C53.3752 60.4799 53.5601 60.4799 53.7401 60.4799C54.4426 60.4518 55.1409 60.3564 55.8252 60.195C56.5364 60.0387 57.2298 59.811 57.8951 59.5151C58.5973 59.2169 59.2674 58.8483 59.8952 58.415C61.4713 57.3307 62.7602 55.8793 63.6504 54.186C64.5406 52.4926 65.0055 50.6081 65.0051 48.695C65.0051 45.5655 63.762 42.5642 61.5491 40.3513C59.3362 38.1383 56.3348 36.895 53.2052 36.895C51.6558 36.895 50.1217 37.2003 48.6903 37.7934C47.2589 38.3865 45.9584 39.2557 44.863 40.3515C43.7677 41.4473 42.899 42.748 42.3065 44.1796C41.7141 45.6112 41.4095 47.1456 41.4102 48.695C41.4102 48.82 41.4102 48.9401 41.4102 49.0651" stroke="white" stroke-width="0.5" stroke-miterlimit="10"/>
<path d="M21.2952 55.7499C20.5652 56.4275 19.6062 56.8045 18.6102 56.8051C17.5679 56.8051 16.5683 56.391 15.8313 55.654C15.0943 54.917 14.6802 53.9172 14.6802 52.8749C14.6802 51.8322 15.0941 50.8322 15.8309 50.0944C16.5678 49.3566 17.5675 48.9414 18.6102 48.9401C19.5449 48.9403 20.4489 49.2734 21.16 49.8801C21.8711 50.4867 22.3427 51.3269 22.4901 52.2499" stroke="white" stroke-width="0.5" stroke-miterlimit="10"/>
<path d="M18.61 54.84C19.6953 54.84 20.575 53.9603 20.575 52.875C20.575 51.7898 19.6953 50.91 18.61 50.91C17.5248 50.91 16.645 51.7898 16.645 52.875C16.645 53.9603 17.5248 54.84 18.61 54.84Z" stroke="white" stroke-width="0.5" stroke-miterlimit="10"/>
<path d="M23.145 56.655C22.5966 57.3097 21.9148 57.8398 21.145 58.2099C20.3633 58.579 19.5095 58.7703 18.645 58.77C17.0816 58.77 15.5822 58.1489 14.4767 57.0434C13.3712 55.9379 12.75 54.4384 12.75 52.8749C12.7493 52.1004 12.9014 51.3334 13.1974 50.6176C13.4933 49.9018 13.9274 49.2512 14.4749 48.7033C15.0223 48.1554 15.6724 47.7208 16.3879 47.4243C17.1035 47.1277 17.8705 46.975 18.645 46.975C19.7342 46.9737 20.8025 47.2744 21.7311 47.8437C22.6597 48.413 23.4122 49.2288 23.905 50.2001" stroke="white" stroke-width="0.5" stroke-miterlimit="10"/>
<path d="M26.145 50.645V50.64" stroke="white" stroke-width="0.5" stroke-miterlimit="10"/>
<path d="M25.0602 57.3701C24.55 58.1011 23.9194 58.74 23.1952 59.2599C22.6358 59.6664 22.0234 59.9945 21.3751 60.235C20.4907 60.5654 19.5544 60.7347 18.6102 60.735C16.5243 60.735 14.5238 59.9063 13.0488 58.4313C11.5739 56.9564 10.7451 54.956 10.7451 52.8701C10.7451 50.7841 11.5739 48.7835 13.0488 47.3085C14.5238 45.8336 16.5243 45.0051 18.6102 45.0051C19.9541 45.004 21.2757 45.3477 22.4487 46.0034C23.6218 46.659 24.607 47.6047 25.3102 48.7499" stroke="white" stroke-width="0.5" stroke-miterlimit="10"/>
<path d="M27.0203 57.9799C26.5638 58.7262 26.0107 59.4088 25.3753 60.0099C24.8709 60.488 24.318 60.9121 23.7253 61.2751C23.1619 61.6171 22.5655 61.9017 21.9453 62.1249C20.8756 62.5099 19.7472 62.7062 18.6104 62.705C16.0037 62.7037 13.5041 61.6676 11.6609 59.8244C9.81769 57.9812 8.7816 55.4816 8.78027 52.8749C8.78027 50.2674 9.81584 47.7666 11.6592 45.9223C13.5025 44.078 16.0028 43.0413 18.6104 43.04C20.2686 43.0386 21.9001 43.457 23.3532 44.256C24.8062 45.0551 26.0334 46.2089 26.9203 47.61" stroke="white" stroke-width="0.5" stroke-miterlimit="10"/>
<path d="M29.0349 58.395C28.6589 59.1296 28.2028 59.8206 27.6749 60.455C27.2385 60.9798 26.7567 61.4649 26.235 61.905C25.7311 62.3307 25.1925 62.7137 24.6249 63.05C24.0558 63.3829 23.4606 63.6688 22.845 63.905C21.4998 64.421 20.0707 64.6838 18.6299 64.6801C16.7342 64.6827 14.866 64.2267 13.1847 63.3508C11.5034 62.4749 10.0592 61.2052 8.97498 59.6501C8.57819 59.0911 8.23339 58.4968 7.94495 57.8749C7.65674 57.2764 7.42566 56.652 7.25489 56.01C7.07835 55.3751 6.9579 54.726 6.8949 54.07C6.85459 53.6763 6.83462 53.2807 6.83497 52.885C6.83497 52.615 6.83487 52.34 6.86487 52.07C6.91523 51.2573 7.05443 50.4526 7.27991 49.6701C7.43551 49.1154 7.63443 48.5736 7.87488 48.05C8.20275 47.3055 8.612 46.5996 9.09498 45.945C9.48573 45.4067 9.92411 44.9047 10.4049 44.445C10.8705 43.9887 11.3721 43.5707 11.9049 43.195C12.4515 42.8095 13.0323 42.4747 13.6399 42.195C14.2563 41.9002 14.8992 41.664 15.5599 41.4899C16.5565 41.2242 17.5835 41.0898 18.6149 41.09C20.6434 41.0879 22.6383 41.6096 24.406 42.6047C26.1737 43.5998 27.6545 45.0346 28.705 46.77" stroke="white" stroke-width="0.5" stroke-miterlimit="10"/>
<path d="M30.23 54.905V54.9" stroke="white" stroke-width="0.5" stroke-miterlimit="10"/>
</g>
</svg>
