<svg width="106" height="23" viewBox="0 0 106 23" fill="none" xmlns="http://www.w3.org/2000/svg">
<mask id="mask0_1157_14595" style="mask-type:luminance" maskUnits="userSpaceOnUse" x="0" y="0" width="106" height="23">
<path d="M105.6 0H0V22.4H105.6V0Z" fill="white"/>
</mask>
<g mask="url(#mask0_1157_14595)">
<path d="M9.83911 11.4402L10.2391 11.0322V9.60017L9.83911 9.19217H9.29512L8.91113 9.60017V11.0242L9.29512 11.4322L9.83911 11.4402Z" fill="#01E401"/>
<path d="M13.4157 11.4242L13.7997 11.0162V9.60017L13.4157 9.19217H12.8717L12.4717 9.60017V11.0082L12.8717 11.4162L13.4157 11.4242Z" fill="#01E401"/>
<path d="M21.8233 8.13618L19.8553 9.68018L19.7753 10.2402L19.6872 10.3202H19.1513L18.7513 10.7282V11.2642L19.1113 11.6322V11.8322L18.7353 12.2322V14.7682L19.1353 15.1522V15.3442L18.7593 15.7282V16.2882L18.5912 16.4562H15.8073L15.6392 16.2882V13.4482L15.5672 13.3762L15.2392 13.0482V12.8562L15.6233 12.4562V11.9202H15.6872L15.7993 11.7842L16.3513 11.7282L17.6793 9.98418L17.6233 9.44818L17.7513 9.31218V9.25618V9.09618L18.1432 8.69618V5.44818L17.7432 5.06418V4.91218V4.73618L17.5993 4.54418V4.00018L16.2713 2.24018L15.7273 2.18418L15.6473 2.07218V1.52818L15.2713 1.12018H14.7432L14.5513 0.968183V0.408183L14.1353 0.000183105H8.57526L8.15927 0.408183V0.968183L7.99926 1.12018H7.47125L7.08724 1.52818V2.06418L7.00726 2.17618L6.39926 2.24018L5.08724 4.00018L5.14325 4.56018L4.99926 4.75218V4.92818V4.96818L4.59926 5.35218V8.60018L4.99926 9.00018V9.25618L5.14325 9.40818L5.09525 9.92818L6.39926 11.6562L6.95126 11.7122L7.06324 11.8482H7.11127V12.3842L7.49525 12.7922V12.9842L7.17526 13.3122L7.10326 13.3842V16.2322L6.92726 16.4002H4.15126L3.97526 16.2322V15.6722L3.59926 15.2802V15.0882L3.99926 14.7042V12.1682L3.62325 11.7682V11.5762L3.98326 11.2002V10.6642L3.59125 10.2562H3.05526L2.96725 10.1762L2.88724 9.61618L0.919251 8.07218L0.375256 8.15218L0.03125 8.59218L0.103259 9.15218L2.07125 10.7042L2.62325 10.6242H2.66324V11.1602L3.03925 11.5682V11.6882L2.63925 12.0882L2.59926 14.6242L2.97526 15.0322V15.2242L2.59926 15.6322V16.1922L2.97526 16.5762H3.52726L3.69525 16.7522V17.3122L4.07125 17.6962H6.85526L7.25526 17.3122V16.7522L7.42325 16.5762H7.99926L8.37526 16.1922V13.4482L8.03925 13.0482V12.8322L8.43925 12.4242V11.8882L8.03925 11.4802H7.51127L7.41525 11.3682L7.47125 10.8002L6.12726 9.06418L5.58326 9.00818L5.97526 8.62418V5.42418L5.59926 4.96818V4.90418L6.14325 4.84818L7.47125 3.11218L7.41525 2.54418L7.45526 2.48818H7.99926L8.39926 2.08018V1.52818L8.59125 1.37618H14.1513L14.3432 1.52818V2.06418L14.7353 2.47218H15.2793L15.3273 2.52818L15.2713 3.09618L16.5753 4.80018L17.1273 4.85618V4.92018L16.7513 5.32818V8.52818L17.1513 8.91218L16.6233 8.96818L15.2793 10.7042L15.3353 11.2722L15.2313 11.4002H14.6793L14.3033 11.8082V12.3442L14.6793 12.7522V12.9682L14.3593 13.3682V16.2162L14.7353 16.6002H15.2872L15.4553 16.7762V17.3362L15.8553 17.7202H18.6392L19.0152 17.3362V16.7762L19.1833 16.6002H19.7353L20.1113 16.2162V15.6562L19.7353 15.2482H19.6953V15.0562L20.0713 14.6482V12.1122L19.6713 11.7122V11.5922H19.7113L20.0872 11.1842V10.6482H20.1353L20.6793 10.7282L22.6473 9.17618L22.7273 8.61618L22.3833 8.17618L21.8233 8.13618Z" fill="#01E401"/>
<path d="M9.59882 16.5602L9.19882 16.9682V17.5282L9.03082 17.7042H8.4868L5.83082 20.3522V20.8882L5.66281 21.0642H2.87882L2.71083 20.8882V20.3362L2.31083 19.9282H1.76681L1.38281 20.3362V20.8882L1.76681 21.2802H2.31083L2.4868 21.4562V22.0162L2.86281 22.4002H5.64681L6.03881 22.0162V21.4562L6.21481 21.2802H6.76681L9.41481 18.6322V18.0722L9.56681 17.9042H10.0948L10.5268 17.5122V16.9522L10.1348 16.5442L9.59882 16.5602Z" fill="#01E401"/>
<path d="M20.399 19.9282L19.999 20.3362V20.8882L19.831 21.0642H17.047L16.879 20.8882V20.3522L14.231 17.7042H13.679L13.511 17.5282V16.9682L13.111 16.5602H12.567L12.167 16.9682V17.5282L12.607 17.9202H13.135L13.287 18.0882V18.6482L15.935 21.2962H16.479L16.647 21.4722V22.0322L17.047 22.4162H19.831L20.207 22.0322V21.4722L20.375 21.2962H20.927L21.303 20.9042V20.3522L20.927 19.9442L20.399 19.9282Z" fill="#01E401"/>
<path d="M35.7673 6.47218L35.5753 6.30418V5.70418L35.1993 5.28018H32.2713L31.8713 5.70418V6.30418L31.6793 6.47218H31.0953L30.6953 6.90418V9.89618L31.0953 10.3202H31.6793L31.8713 10.4962V11.0962L32.2713 11.5202H35.1993L35.3913 11.7122V14.7042L35.1993 14.8802H32.2713L32.0953 14.7042V14.1122L31.6793 13.6802H31.0953L30.6953 14.1122V14.7042L31.0953 15.1122H31.6793L31.8713 15.3042V15.9042L32.2713 16.3122H35.1993L35.6153 15.9042V15.3042L35.8073 15.1122H36.3753L36.7753 14.7042V11.7122L36.3753 11.2882H35.7913L35.5993 11.0962V10.4962L35.1833 10.0882H32.2473L32.0793 9.89618V6.90418L32.2473 6.72818H35.1833L35.3753 6.90418V7.49618L35.7913 7.92818H36.3753L36.7753 7.49618V6.90418L36.3753 6.47218H35.7673Z" fill="#01E401"/>
<path d="M44.3591 7.67218L43.9431 8.09618V14.7042L44.2471 15.0162L44.0791 15.1922L43.7751 14.9042H40.8391L40.6471 14.7282V8.12018L40.2311 7.69618H39.6471L39.2471 8.12018V14.7282L39.6471 15.1522H40.2311L40.4231 15.3282V15.9282L40.8391 16.3522H43.7751L44.0791 16.0402L44.2471 16.2162L43.9431 16.5282V17.1042L43.7751 17.2802H40.8391L40.4231 17.7042V18.3042L40.8391 18.7282H43.7751L44.1671 18.3042V17.7042L44.3591 17.5282H44.9431L45.3431 17.1042V8.09618L44.9431 7.67218H44.3591Z" fill="#01E401"/>
<path d="M52.9673 8.87218L52.7993 8.69618V8.09618L52.3833 7.67218H48.2793L47.8633 8.09618V15.9042L48.2793 16.3282H48.8633L49.2793 15.9042V9.29618L48.9753 8.98418L49.1513 8.81618L49.4473 9.12018H50.0393L50.3433 8.81618L50.5113 8.98418L50.2073 9.29618V12.2962L50.6233 12.7202H51.1993L51.6153 12.2962V9.29618L51.3193 8.98418L51.4873 8.81618L51.7913 9.12018H52.3753L52.5433 9.29618V15.9042L52.9593 16.3282H53.5993L54.0153 15.9042V9.29618L53.5993 8.87218H52.9673Z" fill="#01E401"/>
<path d="M61.5989 8.88819L61.4069 8.69619V8.09619L61.0069 7.68819H58.0549L57.7509 8.00019L57.5989 7.80819L57.9029 7.49619V5.70419L57.4869 5.27219H56.9029L56.5029 5.70419V15.9202L56.9029 16.3522H61.0229L61.4229 15.9202V15.3282L61.6149 15.1282H62.1989L62.5989 14.7282V9.31219L62.1989 8.88819H61.5989ZM61.1989 14.7282L61.0309 14.8962H58.0789L57.7749 15.1922L57.6069 15.0162L57.9029 14.7042V9.29619L57.6069 8.98419L57.7749 8.81619L58.0789 9.12019H61.0309L61.1989 9.31219V14.7282Z" fill="#01E401"/>
<path d="M68.511 6.40017L68.927 5.97617V5.25617L68.511 4.80017H67.767L67.375 5.22417V5.96017L67.767 6.38417L68.511 6.40017Z" fill="#01E401"/>
<path d="M66.6709 7.6962L66.2549 8.1202V8.7202L66.6709 9.1442H67.2389L67.5429 8.8322L67.7109 9.0082L67.4069 9.3122V14.7282L67.7109 15.0322L67.5429 15.2082L67.2389 14.9202H66.6709L66.2549 15.3442V15.9442L66.6709 16.3682H69.5989L69.9909 15.9442V15.3442L69.5989 14.9202H69.0069L68.7109 15.2082L68.5189 15.0322L68.8229 14.7282V9.3122L68.5189 9.0082L68.7109 8.8322L69.0069 9.1442H69.5989L69.9909 8.7202V8.1202L69.5989 7.6962H66.6709Z" fill="#01E401"/>
<path d="M78.7993 8.8882L78.6153 8.7202V8.1202L78.1993 7.6962H75.2633L74.8633 8.1202V8.7202L74.6793 8.8882H74.0873L73.6953 9.3122V14.7282L74.0873 15.1522H74.6793L74.8633 15.3282V15.9202L75.2633 16.3522H78.1993L78.6153 15.9202V15.3282L78.7993 15.1522H79.3913L79.7833 14.7282V9.3122L79.3913 8.8882H78.7993ZM78.3833 14.7282L78.1993 14.8962H75.2633L75.0953 14.7282V9.3122L75.2633 9.1442H78.1993L78.3833 9.3122V14.7282Z" fill="#01E401"/>
<path d="M87.4153 8.8882L87.1993 8.7202V8.1202L86.7993 7.6962H83.8473L83.4553 8.1202V8.7202L83.2633 8.8882H82.6793L82.2793 9.3122V11.1122L82.6793 11.5362H83.2633L83.4553 11.7122V12.3122L83.8473 12.7362H86.7993L86.9753 12.9122V14.7042L86.7993 14.8802H83.8473L83.6793 14.7042V14.1122L83.2633 13.6802H82.6793L82.2793 14.1122V14.7042L82.6793 15.1362H83.2473L83.4313 15.3042V15.9042L83.8313 16.3282H86.7833L87.1833 15.9042V15.3042L87.3673 15.1362H87.9993L88.3913 14.7042V12.9122L87.9993 12.4882H87.4073L87.2233 12.3122V11.7122L86.8393 11.2882H83.8873L83.7193 11.1122V9.3122L83.8873 9.1442H86.8393L87.0153 9.3122V9.9122L87.4313 10.3442H87.9993L88.3993 9.9122V9.3122L87.9993 8.8882H87.4153Z" fill="#01E401"/>
<path d="M94.3192 6.40017L94.7352 5.97617V5.25617L94.3192 4.80017H93.5992L93.1992 5.22417V5.96017L93.5992 6.40017H94.3192Z" fill="#01E401"/>
<path d="M92.5029 7.6962L92.0869 8.1202V8.7202L92.5029 9.1442H93.0709L93.3749 8.8322L93.5429 9.0082L93.2389 9.3122V14.7282L93.5429 15.0322L93.3749 15.2082L93.0709 14.9202H92.5029L92.0869 15.3442V15.9442L92.5029 16.3682H95.4389L95.8309 15.9442V15.3442L95.4389 14.9202H94.8469L94.5509 15.2082L94.3589 15.0322L94.6629 14.7282V9.3122L94.3589 9.0082L94.5509 8.8322L94.8469 9.1442H95.4389L95.8309 8.7202V8.1202L95.4389 7.6962H92.5029Z" fill="#01E401"/>
<path d="M104.616 10.3442H105.2L105.6 9.9122V9.3122L105.2 8.8882H104.616L104.424 8.7202V8.1202L104 7.6962H101.048L100.648 8.1202V8.7202L100.456 8.8882H99.8717L99.4717 9.3122V11.1122L99.8717 11.5362H100.456L100.648 11.7122V12.3122L101.048 12.7362H104L104.168 12.9122V14.7042L104 14.8802H101.048L100.872 14.7042V14.1122L100.456 13.6802H99.8717L99.4717 14.1122V14.7042L99.8717 15.1362H100.456L100.648 15.3042V15.9042L101.048 16.3282H104L104.392 15.9042V15.3042L104.584 15.1362H105.168L105.568 14.7042V12.9122L105.168 12.4882H104.584L104.392 12.3122V11.7122L104 11.2882H101.048L100.872 11.1122V9.3122L101.048 9.1442H104L104.168 9.3122V9.9122L104.616 10.3442Z" fill="#01E401"/>
</g>
</svg>
