<svg width="22" height="22" viewBox="0 0 22 22" fill="none" xmlns="http://www.w3.org/2000/svg">
<path d="M22 11C22 4.92487 17.0751 -7.46378e-07 11 -4.80825e-07C4.92487 -2.15273e-07 -7.46378e-07 4.92487 -4.80825e-07 11C-2.15273e-07 17.0751 4.92487 22 11 22C17.0751 22 22 17.0751 22 11Z" fill="#627EEA"/>
<path d="M11.3425 2.75049V8.84799L16.496 11.1514L11.3425 2.75049Z" fill="#E1E1E1"/>
<path d="M11.3427 2.75122L6.18628 11.1521L11.3427 8.84872V2.75122Z" fill="white"/>
<path d="M11.3425 15.1048V19.2485L16.499 12.1113L11.3425 15.1048Z" fill="#CECECE"/>
<path d="M11.3427 19.2465V15.1028L6.18628 12.1123L11.3427 19.2495V19.2465Z" fill="white"/>
<path d="M11.3425 14.1405L16.496 11.1471L11.3425 8.84668V14.1405Z" fill="#D7D7D7"/>
<path d="M6.18628 11.15L11.3427 14.1435V8.84668L6.18628 11.1471V11.15Z" fill="#E1E1E1"/>
</svg>
