<svg width="54" height="15" viewBox="0 0 54 15" fill="none" xmlns="http://www.w3.org/2000/svg">
<path d="M14.8067 6.88218C14.6726 5.0127 13.8353 3.2634 12.4634 1.98646C11.0914 0.70951 9.28657 -0.000271463 7.41229 7.78837e-08C5.44643 7.78837e-08 3.56108 0.780935 2.17101 2.17101C0.780935 3.56108 0 5.44642 0 7.41228C0 9.37814 0.780935 11.2635 2.17101 12.6536C3.56108 14.0436 5.44643 14.8246 7.41229 14.8246C8.62609 14.8254 9.82149 14.5278 10.8933 13.9581C11.9651 13.3884 12.8804 12.5639 13.5587 11.5573L11.0889 9.90372C10.6844 10.5076 10.1373 11.0024 9.49605 11.3444C8.85478 11.6865 8.13908 11.8651 7.41229 11.8646C6.23837 11.8646 5.11252 11.3983 4.28239 10.5683C3.45226 9.73824 2.98585 8.61243 2.98574 7.43851C2.98629 6.26488 3.4529 5.13951 4.28298 4.30982C5.11306 3.48013 6.23866 3.01405 7.41229 3.01405C8.31961 3.01415 9.205 3.29295 9.94867 3.81274C10.6923 4.33252 11.2584 5.0682 11.5703 5.92025H6.26838V8.90723H14.8254V7.41353C14.8254 7.23475 14.8192 7.05763 14.8067 6.88218Z" fill="white"/>
<path d="M25.2633 0.015686V2.93063C22.7027 3.16174 20.8113 4.88072 20.8113 7.53707V14.707H17.7939V7.48543C17.7939 6.50451 17.9871 5.53318 18.3624 4.62691C18.7377 3.72065 19.2879 2.89718 19.9815 2.20355C20.6751 1.50991 21.4985 0.959689 22.4048 0.584294C23.311 0.208899 24.2824 0.015686 25.2633 0.015686Z" fill="white"/>
<path d="M41.632 7.58023V14.7156L38.6433 14.6939C38.6433 14.6939 38.6504 7.65644 38.6504 7.43948C38.6504 7.21111 38.6329 6.98307 38.5979 6.75738C38.4352 5.71355 37.9047 4.76225 37.1022 4.0751C36.2998 3.38796 35.2782 3.01022 34.2218 3.01002C33.0473 3.01002 31.9209 3.47655 31.0904 4.30699C30.2599 5.13743 29.7932 6.26376 29.7931 7.43823C29.7931 8.01984 29.9076 8.59577 30.1301 9.13312C30.3526 9.67048 30.6788 10.1587 31.0901 10.57C31.5013 10.9813 31.9896 11.3075 32.5269 11.5301C33.0642 11.7527 33.6401 11.8673 34.2218 11.8673H37.5702V14.793H33.9865C33.0375 14.793 32.0979 14.6061 31.2212 14.243C30.3445 13.8798 29.5479 13.3475 28.877 12.6765C28.206 12.0055 27.6738 11.2089 27.3106 10.3322C26.9475 9.45548 26.7607 8.51584 26.7607 7.56691V7.40034C26.7611 5.44633 27.5376 3.57247 28.9194 2.19094C30.3013 0.809402 32.1753 0.0333368 34.1293 0.0334473H34.1876C38.3435 0.0334473 41.632 3.42394 41.632 7.58023Z" fill="white"/>
<path d="M53.35 2.9892H46.1172V14.7056H53.35V2.9892Z" fill="white"/>
</svg>
