<svg width="92" height="28" viewBox="0 0 92 28" fill="none" xmlns="http://www.w3.org/2000/svg">
<path d="M11.3759 0.00191218V0.0066927C11.375 0.00478049 11.375 0.00286831 11.374 0C11.375 0.00191221 11.3759 0.00191218 11.3759 0.00191218Z" fill="#6347F9"/>
<path d="M11.39 0.181641L11.3976 0.28057C11.39 0.247914 11.389 0.215258 11.39 0.181641Z" fill="#6347F9"/>
<path d="M11.3984 0.280437L11.483 0.257385C11.4551 0.26603 11.4321 0.290042 11.3984 0.280437Z" fill="#6347F9"/>
<path d="M11.5046 0.25484C11.4969 0.253874 11.4892 0.25484 11.4814 0.256771L11.5008 0.250977C11.5027 0.252908 11.5037 0.253874 11.5046 0.25484Z" fill="#6347F9"/>
<path d="M7.54263 3.68311C5.69454 3.7006 3.92875 4.44994 2.63213 5.76695C1.33551 7.08395 0.613801 8.86122 0.625131 10.7094V13.0293H6.25013V9.6681C6.24917 9.5099 6.27977 9.35309 6.34013 9.20685C6.40075 9.06125 6.48904 8.9288 6.60013 8.81685C6.71087 8.70549 6.84254 8.61713 6.98756 8.55685C7.13257 8.49657 7.28808 8.46556 7.44513 8.4656H7.64763C7.8047 8.46507 7.96028 8.4961 8.10513 8.55685C8.25051 8.61718 8.3826 8.70553 8.49388 8.81685C8.71824 9.04334 8.84403 9.3493 8.84388 9.6681V18.6831C9.95752 18.6809 11.0455 18.3482 11.9698 17.7271C12.8942 17.106 13.6134 16.2246 14.0364 15.1943C14.3189 14.5084 14.4642 13.7737 14.4639 13.0318V10.7094C14.468 8.85077 13.7385 7.06565 12.4339 5.74185C11.7968 5.09027 11.0359 4.57251 10.196 4.21898C9.35603 3.86545 8.45394 3.68326 7.54263 3.68311Z" fill="white"/>
<path d="M7.64427 23.2444H7.44177C7.12439 23.2427 6.82065 23.1151 6.59728 22.8896C6.37391 22.6642 6.24919 22.3592 6.25052 22.0419V13.0294C5.51102 13.0289 4.77875 13.1748 4.09589 13.4586C3.41303 13.7425 2.79308 14.1586 2.27177 14.6831C1.21497 15.7458 0.622917 17.1844 0.625523 18.6831V20.9719C0.608574 22.3537 1.00383 23.7093 1.76082 24.8655C2.51781 26.0217 3.60219 26.926 4.87552 27.4631C6.14784 27.9959 7.55069 28.1349 8.90282 27.8621C10.255 27.5894 11.4942 26.9174 12.4605 25.9331C13.1046 25.2781 13.6129 24.5023 13.9561 23.6502C14.2994 22.7982 14.4708 21.8867 14.4605 20.9681V18.6831H8.83552V22.0456C8.83546 22.2034 8.80446 22.3597 8.74427 22.5056C8.65464 22.7251 8.50168 22.913 8.30488 23.0452C8.10809 23.1774 7.87637 23.2481 7.63927 23.2481L7.64427 23.2444Z" fill="white"/>
<path d="M24.0696 10.8143H22.0996V20.8631H27.8759V18.9681H24.0696V10.8143Z" fill="white"/>
<path d="M34.1909 14.5319C33.9141 14.1852 33.5588 13.9094 33.1543 13.7272C32.7498 13.5451 32.3077 13.4618 31.8647 13.4844C31.4014 13.4803 30.9428 13.5764 30.5202 13.766C30.0975 13.9556 29.7208 14.2344 29.4159 14.5831C28.7579 15.3252 28.3945 16.2826 28.3945 17.2744C28.3945 18.2662 28.7579 19.2236 29.4159 19.9656C29.7216 20.313 30.0985 20.5905 30.5211 20.779C30.9437 20.9675 31.402 21.0627 31.8647 21.0581C32.8647 21.0581 33.6401 20.709 34.1909 20.0106V20.8569H36.0334V13.6831H34.1909V14.5319ZM33.6259 18.7306C33.3381 18.9994 32.9807 19.1822 32.5944 19.2584C32.208 19.3346 31.808 19.3012 31.4397 19.1619C31.1961 19.065 30.9755 18.9181 30.7922 18.7306C30.434 18.3299 30.236 17.8112 30.236 17.2738C30.236 16.7363 30.434 16.2176 30.7922 15.8169C30.9761 15.6301 31.1965 15.4832 31.4398 15.3856C31.6831 15.2879 31.9439 15.2415 32.2059 15.2494C32.4689 15.2417 32.7306 15.288 32.9749 15.3857C33.2191 15.4833 33.4407 15.6301 33.6259 15.8169C33.9888 16.2153 34.1899 16.7348 34.1899 17.2738C34.1899 17.8127 33.9888 18.3322 33.6259 18.7306Z" fill="white"/>
<path d="M40.7783 18.5094L38.9171 13.6831H36.9033L39.8296 20.6306C39.7072 21.0447 39.4665 21.414 39.1371 21.6931C38.7915 21.9293 38.3756 22.0404 37.9583 22.0081V23.7318C38.7717 23.8074 39.5849 23.5853 40.2471 23.1068C40.8596 22.6418 41.3517 21.8968 41.7233 20.8719L44.3258 13.6831H42.3558L40.7783 18.5094Z" fill="white"/>
<path d="M48.311 13.4844C47.8086 13.4672 47.3081 13.5546 46.8414 13.7412C46.3746 13.9278 45.9518 14.2094 45.5997 14.5681C44.9173 15.3061 44.5395 16.275 44.542 17.2802C44.5446 18.2853 44.9273 19.2523 45.6135 19.9869C46.3276 20.7044 47.2747 21.0631 48.4547 21.0631C49.8247 21.0631 50.8618 20.5514 51.566 19.5281L50.0822 18.6669C49.8936 18.9068 49.6496 19.0974 49.3711 19.2224C49.0927 19.3474 48.7881 19.4029 48.4835 19.3844C47.3885 19.3844 46.7172 18.9348 46.4697 18.0356H51.8522C51.8984 17.7845 51.9222 17.5297 51.9235 17.2744C51.9511 16.2755 51.5842 15.3059 50.9022 14.5756C50.5732 14.2193 50.1717 13.9376 49.7248 13.7494C49.2778 13.5611 48.7957 13.4708 48.311 13.4844ZM46.436 16.5994C46.5175 16.1785 46.745 15.8 47.0785 15.5306C47.4329 15.2692 47.866 15.1369 48.306 15.1556C48.7102 15.1498 49.1052 15.2762 49.431 15.5156C49.7772 15.7839 50.009 16.1733 50.0797 16.6056L46.436 16.5994Z" fill="white"/>
<path d="M55.0493 14.9206V13.6831H53.208V20.8606H55.0493V17.4331C55.0493 16.7447 55.2705 16.2518 55.713 15.9543C56.1556 15.6582 56.692 15.5358 57.2193 15.6106V13.5431C56.7564 13.5369 56.3004 13.6557 55.8993 13.8868C55.5015 14.1188 55.2 14.4855 55.0493 14.9206Z" fill="white"/>
<path d="M66.1992 12.3693V10.8143H59.648V12.7093H63.703L59.543 19.2806V20.8618H66.278V18.9681H62.038L66.1992 12.3693Z" fill="white"/>
<path d="M70.6254 13.4844C70.1226 13.4668 69.6217 13.5541 69.1545 13.7407C68.6873 13.9273 68.264 14.2091 67.9117 14.5681C67.23 15.3066 66.8527 16.2755 66.8555 17.2805C66.8583 18.2854 67.2409 19.2522 67.9267 19.9869C68.6425 20.701 69.59 21.0581 70.7692 21.0581C72.1392 21.0581 73.1762 20.5465 73.8804 19.5231L72.3966 18.6619C72.208 18.9018 71.964 19.0924 71.6856 19.2174C71.4071 19.3424 71.1025 19.398 70.7979 19.3794C69.7029 19.3794 69.0317 18.9298 68.7842 18.0306H74.1667C74.2128 17.7795 74.2367 17.5247 74.2379 17.2694C74.2656 16.2705 73.8987 15.301 73.2166 14.5706C72.8872 14.2152 72.4855 13.9344 72.0386 13.7471C71.5916 13.5597 71.1098 13.4702 70.6254 13.4844ZM68.7504 16.5994C68.8324 16.1787 69.0599 15.8004 69.3929 15.5306C69.7477 15.2691 70.1813 15.1367 70.6216 15.1556C71.0259 15.1498 71.4209 15.2762 71.7466 15.5156C72.0933 15.7838 72.3255 16.1732 72.3966 16.6056L68.7504 16.5994Z" fill="white"/>
<path d="M77.3647 14.9206V13.6831H75.5234V20.8606H77.3647V17.4331C77.3647 16.7447 77.5859 16.2518 78.0284 15.9543C78.4694 15.6598 79.0032 15.5375 79.5284 15.6106V13.5431C79.0655 13.5369 78.6095 13.6557 78.2084 13.8868C77.8114 14.1196 77.5101 14.486 77.3584 14.9206H77.3647Z" fill="white"/>
<path d="M83.7319 13.4843C82.8658 13.4961 82.0305 13.8074 81.3679 14.3652C80.7053 14.923 80.2562 15.693 80.0969 16.5443C79.9345 17.3964 80.0711 18.2784 80.4838 19.0414C80.8965 19.8043 81.5599 20.4014 82.3619 20.7318C83.1629 21.059 84.0527 21.0977 84.8791 20.8412C85.7055 20.5846 86.417 20.0489 86.8919 19.3256C87.3693 18.6006 87.5825 17.7334 87.4958 16.8698C87.4091 16.0061 87.0276 15.1986 86.4156 14.5831C86.0675 14.2258 85.6496 13.9438 85.1879 13.7548C84.7263 13.5658 84.2306 13.4737 83.7319 13.4843ZM85.1169 18.6956C84.9363 18.8786 84.7202 19.0228 84.4819 19.1193C84.1255 19.2671 83.7333 19.3057 83.355 19.2303C82.9767 19.1548 82.6293 18.9687 82.3569 18.6956C82.0038 18.3065 81.8082 17.7998 81.8082 17.2743C81.8082 16.7489 82.0038 16.2422 82.3569 15.8531C82.6351 15.5892 82.9822 15.4094 83.3582 15.3344C83.7342 15.2594 84.1238 15.2923 84.4819 15.4293C84.7202 15.5259 84.9363 15.6701 85.1169 15.8531C85.4745 16.24 85.6732 16.7475 85.6732 17.2743C85.6732 17.8012 85.4745 18.3087 85.1169 18.6956Z" fill="white"/>
<path d="M91.375 18.6519H89.1338V20.8619H91.375V18.6519Z" fill="white"/>
</svg>
