<svg width="69" height="23" viewBox="0 0 69 23" fill="none" xmlns="http://www.w3.org/2000/svg">
<path d="M12.2067 20.0764C12.2067 20.5632 12.2219 21.0653 12.2067 21.5522C12.1915 21.9325 12.0698 22.2368 11.6133 22.2368C11.1569 22.2368 10.9743 21.963 10.9743 21.537C10.9743 20.5937 10.9591 19.6352 10.9743 18.6919C10.9743 18.3723 10.9287 18.2202 10.5483 18.2202C9.14859 18.205 7.73364 18.1746 6.3339 18.1289C6.18589 18.1072 6.03489 18.1359 5.90518 18.2104C5.77547 18.2849 5.6746 18.4009 5.61881 18.5397C5.16238 19.3765 4.69073 20.1981 4.20386 21.0045C3.94521 21.4457 3.5192 21.5218 3.0932 21.2175C2.66719 20.9132 2.84976 20.6089 3.06277 20.2894C3.48878 19.6656 3.89957 19.0266 4.32558 18.4028C4.55379 18.0833 4.52337 17.9616 4.09736 17.9463C2.95656 17.9261 1.82242 17.7677 0.719726 17.4747C-0.101861 17.2313 -0.177933 17.0183 0.278503 16.3184C0.811013 15.512 1.57174 14.9186 2.34768 14.4014C2.69762 14.1731 2.75848 13.9601 2.63676 13.5646C1.99775 11.1302 1.8456 8.68069 2.6824 6.30722C3.91478 2.86874 6.34911 0.75392 9.98539 0.145339C12.4502 -0.265454 14.778 0.190982 16.8624 1.56029C18.5208 2.65574 19.6466 4.1924 20.3465 6.09422C21.2442 8.5894 21.1224 11.0542 20.3921 13.5341C20.2248 14.1123 20.4682 14.3405 20.879 14.5991C21.6702 15.1012 22.4005 15.6794 22.8873 16.4857C23.2221 17.0487 23.1612 17.1552 22.5374 17.3682C21.3963 17.7486 20.1944 17.8398 19.0076 17.9768C18.4143 18.0528 18.4143 18.0528 18.7642 18.5549C19.1598 19.1331 19.5706 19.7112 19.9509 20.2894C20.1487 20.5937 20.3465 20.9588 19.9205 21.2327C19.4945 21.5065 19.175 21.3696 18.9316 20.9436C18.4447 20.122 17.9426 19.3309 17.4405 18.5245C17.3188 18.3267 17.2123 18.1746 16.9232 18.1746C15.5235 18.205 14.1085 18.2354 12.7088 18.2202C12.298 18.2202 12.1154 18.2811 12.1611 18.7375C12.214 19.1817 12.2293 19.6296 12.2067 20.0764ZM10.9743 0.814778C8.47915 0.875636 6.06004 2.15366 4.43208 4.83141C2.75848 7.60046 2.86498 10.5216 3.64092 13.5189C3.71699 13.808 3.88435 13.7471 4.06693 13.7167C4.6603 13.6254 5.26888 13.5189 5.86225 13.4581C8.35743 13.2146 10.8678 13.3516 13.363 13.3211C15.2319 13.28 17.1007 13.4073 18.9468 13.7015C19.2358 13.7471 19.388 13.6863 19.4641 13.382C19.8749 11.7997 20.1487 10.2021 19.9661 8.54376C19.5097 4.32933 16.269 0.829993 10.9743 0.814778ZM16.7102 15.7402C16.6976 16.0178 16.794 16.2893 16.9787 16.4968C17.1635 16.7043 17.422 16.8313 17.6992 16.8509C17.9755 16.8624 18.2459 16.7681 18.4551 16.5872C18.6643 16.4062 18.7966 16.1523 18.8251 15.8772C18.8333 15.7348 18.8128 15.5922 18.7648 15.4579C18.7169 15.3236 18.6425 15.2003 18.546 15.0953C18.4495 14.9903 18.3329 14.9057 18.2031 14.8466C18.0733 14.7876 17.933 14.7551 17.7905 14.7513C17.0602 14.7513 16.695 15.1469 16.7102 15.7402ZM12.5719 15.7707C12.5795 15.6339 12.5592 15.4971 12.5123 15.3684C12.4653 15.2398 12.3926 15.122 12.2987 15.0224C12.2047 14.9227 12.0914 14.8432 11.9658 14.7888C11.8401 14.7343 11.7047 14.7061 11.5677 14.7056C10.9591 14.6904 10.5027 15.1012 10.5027 15.7098C10.4875 16.3488 10.9287 16.8205 11.5373 16.8205C11.6746 16.8211 11.8107 16.7943 11.9375 16.7415C12.0643 16.6888 12.1793 16.6113 12.2757 16.5135C12.3721 16.4156 12.4479 16.2995 12.4988 16.172C12.5497 16.0444 12.5745 15.908 12.5719 15.7707ZM6.34911 15.6642C6.34898 15.5271 6.3201 15.3916 6.26432 15.2664C6.20855 15.1412 6.12713 15.0291 6.02532 14.9373C5.92352 14.8455 5.80359 14.7761 5.67329 14.7336C5.54299 14.6911 5.40522 14.6764 5.26888 14.6904C5.13623 14.6897 5.0048 14.7159 4.8825 14.7672C4.76019 14.8186 4.64953 14.8941 4.55716 14.9894C4.46479 15.0846 4.39262 15.1975 4.34498 15.3213C4.29734 15.4451 4.27521 15.5772 4.27993 15.7098C4.28434 15.9881 4.39893 16.2533 4.59858 16.4473C4.79823 16.6412 5.06663 16.7481 5.34495 16.7444C5.48236 16.7411 5.61771 16.7104 5.74305 16.6539C5.86839 16.5975 5.98116 16.5166 6.07474 16.416C6.16832 16.3153 6.24081 16.1969 6.28793 16.0678C6.33505 15.9387 6.35585 15.8014 6.34911 15.6642Z" fill="white"/>
<path d="M25.3242 11.5562C25.4003 10.263 25.6133 9.00018 26.6783 8.04166C27.789 7.03751 29.0974 6.8245 30.4972 7.02229C33.5096 7.43308 34.2856 10.0956 34.0574 12.3169C34.0021 13.0369 33.7947 13.737 33.4488 14.3709C32.4294 16.2423 30.0712 16.6683 28.1693 16.1206C26.2371 15.5729 25.522 13.9449 25.3699 12.2865C25.3546 12.0583 25.3394 11.8301 25.3242 11.5562ZM29.7364 8.43724C28.7018 8.43724 27.9107 8.93932 27.5151 9.89784C27.0717 10.9781 27.0608 12.1874 27.4847 13.2755C27.8803 14.31 28.641 14.8426 29.6756 14.8426C30.7862 14.8426 31.5318 14.3557 31.9426 13.2907C32.3789 12.206 32.3735 10.9937 31.9273 9.91305C31.547 8.95454 30.7862 8.45246 29.7364 8.43724Z" fill="white"/>
<path d="M42.5567 15.3294C42.5111 15.5272 42.4807 15.6793 42.435 15.8163C42.3853 15.9819 42.2787 16.1247 42.1339 16.2194C41.9891 16.314 41.8156 16.3545 41.6439 16.3335C41.2331 16.3031 41.0353 16.0597 40.9592 15.6945C40.9466 15.6192 40.9415 15.5427 40.944 15.4663V7.82863C40.944 7.22005 41.2483 6.93097 41.7504 6.9614C42.3285 6.99183 42.4807 7.38741 42.4959 7.85906C42.5263 8.54371 42.4959 9.22837 42.5111 9.91302C42.5111 10.05 42.4654 10.2173 42.5872 10.3695C43.0284 10.05 43.424 9.6848 43.9869 9.56309C45.3866 9.24358 46.6342 9.86738 47.1363 11.2063C47.5657 12.3321 47.5439 13.5802 47.0754 14.6904C46.406 16.3944 44.0782 17.0638 42.5567 15.3294ZM45.7518 12.7734C45.7822 12.5299 45.6909 12.1648 45.5692 11.7996C45.3562 11.191 44.9606 10.7955 44.3064 10.7346C43.713 10.6737 43.1349 11.0389 42.861 11.6475C42.682 12.0267 42.5841 12.439 42.5737 12.8582C42.5632 13.2774 42.6403 13.6941 42.8002 14.0818C42.902 14.3511 43.0798 14.5851 43.3121 14.7552C43.5444 14.9254 43.8211 15.0244 44.1086 15.0403C44.6715 15.086 45.0823 14.7969 45.3866 14.3404C45.6909 13.884 45.7366 13.4124 45.7518 12.7734Z" fill="white"/>
<path d="M56.2247 12.9104C56.2095 10.1718 58.6895 8.57426 61.0325 9.82185C62.0367 10.3544 62.5236 11.2368 62.5236 12.3779C62.5236 12.8952 62.2953 13.169 61.7628 13.2603C60.6522 13.4429 59.5263 13.3364 58.4156 13.3364C57.9135 13.3364 57.8831 13.5342 57.9896 13.9146C58.1722 14.5384 58.5069 15.0252 59.1611 15.1774C59.9371 15.3447 60.5913 15.0556 61.0934 14.4775C61.2119 14.3188 61.369 14.1931 61.5498 14.1123C61.8085 14.0058 62.0671 13.9754 62.2801 14.2036C62.4931 14.4319 62.4323 14.6905 62.3106 14.9491C61.8998 15.8012 61.1238 16.1967 60.2566 16.3032C57.6093 16.6532 56.2095 15.1013 56.2247 12.9104ZM59.3894 12.3475C59.8002 12.3475 60.2262 12.3322 60.637 12.3475C60.8652 12.3627 60.926 12.2866 60.8956 12.0584C60.7891 11.2368 60.2109 10.6586 59.4502 10.6434C58.6895 10.6282 58.0961 11.2064 57.9592 12.0127C57.9135 12.2562 57.9592 12.3627 58.2331 12.3475C58.6286 12.3322 59.009 12.3475 59.3894 12.3475Z" fill="white"/>
<path d="M52.3709 12.6974V11.6172C52.3709 11.2216 52.5079 10.7804 51.8384 10.7652C51.5798 10.7652 51.4429 10.5065 51.4581 10.2175C51.452 10.1503 51.4596 10.0827 51.4802 10.0185C51.5008 9.95431 51.5341 9.89492 51.578 9.84384C51.622 9.79276 51.6758 9.75103 51.7362 9.72113C51.7966 9.69122 51.8624 9.67375 51.9297 9.66974C52.3709 9.63931 52.4014 9.39588 52.3862 9.04595C52.3507 8.62859 52.3764 8.20831 52.4622 7.79835C52.4907 7.6274 52.5806 7.47273 52.7151 7.36345C52.8496 7.25417 53.0194 7.19781 53.1925 7.20499C53.3744 7.18595 53.5569 7.2343 53.7056 7.34085C53.8542 7.44741 53.9586 7.60478 53.9989 7.78314C54.151 8.27 54.075 8.77208 54.075 9.25895C54.075 9.56324 54.1663 9.66974 54.4553 9.6241C54.6081 9.61146 54.762 9.62171 54.9118 9.65453C55.0554 9.67711 55.1857 9.75149 55.2782 9.86361C55.3707 9.97573 55.419 10.1178 55.4139 10.2631C55.4139 10.5826 55.2008 10.7043 54.927 10.7956C54.6531 10.8869 54.2423 10.7195 54.1358 10.9478C54.0141 11.2368 54.0902 11.6172 54.0902 11.9519C54.0902 12.7431 54.0902 13.5494 54.1054 14.3406C54.1206 14.9188 54.3336 15.0709 54.8966 14.9948L55.2921 14.9492C55.5964 14.9035 55.8246 15.01 55.9159 15.2991C56.0072 15.5882 55.9464 15.8468 55.6877 15.999C54.9422 16.4402 54.1206 16.425 53.3295 16.1816C52.6448 15.9686 52.4774 15.36 52.4622 14.721C52.4318 14.0363 52.4622 13.3517 52.4622 12.667C52.4368 12.6885 52.4042 12.6994 52.3709 12.6974Z" fill="white"/>
<path d="M65.5322 10.4151C66.4298 9.41095 67.1754 9.24359 68.0426 9.7761C68.4229 10.0043 68.5751 10.339 68.4229 10.7346C68.2556 11.1606 67.9209 11.2063 67.4949 11.0998C66.3081 10.7803 65.9278 11.0389 65.6995 12.2561C65.517 13.2146 65.6235 14.1883 65.593 15.1468C65.6101 15.3951 65.5738 15.6441 65.4865 15.8771C65.4258 16.0271 65.32 16.1545 65.1837 16.2418C65.0475 16.329 64.8874 16.3717 64.7258 16.364C64.5635 16.371 64.4038 16.3219 64.2736 16.2249C64.1433 16.1279 64.0505 15.989 64.0107 15.8315C63.9458 15.6349 63.91 15.4299 63.9042 15.2229C63.889 13.7319 63.9042 12.2256 63.9042 10.7346C63.9076 10.6377 63.9178 10.5411 63.9347 10.4455C64.0107 9.97389 64.102 9.53267 64.7106 9.51745C65.3192 9.45659 65.4713 9.86739 65.5322 10.4151Z" fill="white"/>
<path d="M37.1293 10.3695C38.027 9.411 38.6051 9.25886 39.4876 9.70008C39.9136 9.91308 40.1874 10.2174 40.0201 10.689C39.8527 11.1607 39.4419 11.2063 38.9855 11.0694C37.9205 10.7651 37.5249 11.0237 37.2967 12.104C37.0989 13.0625 37.2206 14.0362 37.1902 14.9947C37.1907 15.2611 37.1601 15.5266 37.0989 15.7859C37.0593 15.943 36.9695 16.083 36.8432 16.1846C36.717 16.2862 36.561 16.3438 36.399 16.3488C36.229 16.3728 36.056 16.3354 35.911 16.2434C35.7661 16.1514 35.6586 16.0108 35.6079 15.8467C35.5407 15.6722 35.5097 15.4859 35.5166 15.299V10.6282C35.5166 9.85222 35.8361 9.47186 36.399 9.50229C36.962 9.50229 37.0076 9.95872 37.1293 10.3695Z" fill="white"/>
<path d="M50.4252 12.9256V15.1925C50.4289 15.383 50.4032 15.5729 50.3491 15.7555C50.2122 16.1511 49.9535 16.3488 49.5428 16.3336C49.132 16.3184 48.8581 16.1206 48.8277 15.7403C48.6603 13.8574 48.6603 11.9633 48.8277 10.0805C48.8733 9.60881 49.2537 9.42623 49.7101 9.48709C50.197 9.54795 50.41 9.9131 50.4252 10.3695V12.9256Z" fill="white"/>
<path d="M50.4261 7.82854C50.4306 7.93655 50.4136 8.04437 50.3762 8.14579C50.3388 8.24721 50.2817 8.34021 50.2081 8.41943C50.1345 8.49864 50.046 8.5625 49.9477 8.60732C49.8493 8.65214 49.743 8.67703 49.635 8.68055C49.5213 8.68885 49.4072 8.67386 49.2996 8.6365C49.1919 8.59913 49.0931 8.54019 49.009 8.46326C48.925 8.38634 48.8575 8.29307 48.8108 8.18916C48.7641 8.08525 48.7391 7.97289 48.7373 7.85897C48.745 7.64867 48.8299 7.44858 48.9759 7.29699C49.1218 7.14541 49.3186 7.05297 49.5285 7.03739C50.0305 7.02217 50.4109 7.34168 50.4261 7.82854Z" fill="white"/>
<path d="M16.7114 15.7403C16.6962 15.147 17.0613 14.7514 17.7916 14.7514C17.9337 14.7567 18.0734 14.7901 18.2025 14.8496C18.3316 14.9092 18.4476 14.9938 18.5438 15.0985C18.64 15.2032 18.7145 15.3259 18.763 15.4596C18.8115 15.5933 18.833 15.7352 18.8262 15.8773C18.7828 16.1376 18.6442 16.3725 18.4374 16.5365C18.2306 16.7005 17.9703 16.7818 17.7069 16.7648C17.4435 16.7477 17.1959 16.6335 17.0119 16.4442C16.828 16.2549 16.7209 16.0041 16.7114 15.7403Z" fill="#7C7C7C"/>
<path d="M12.5718 15.7707C12.5741 15.9091 12.5485 16.0467 12.4965 16.1751C12.4445 16.3034 12.3673 16.4201 12.2694 16.518C12.1714 16.616 12.0548 16.6932 11.9264 16.7452C11.798 16.7971 11.6605 16.8227 11.522 16.8205C11.3799 16.8193 11.2396 16.7892 11.1096 16.732C10.9796 16.6747 10.8626 16.5916 10.7658 16.4877C10.6689 16.3837 10.5943 16.2612 10.5465 16.1274C10.4986 15.9937 10.4785 15.8516 10.4874 15.7098C10.4865 15.5725 10.5139 15.4364 10.5679 15.3101C10.6219 15.1838 10.7013 15.07 10.8012 14.9758C10.9012 14.8816 11.0194 14.809 11.1487 14.7625C11.2779 14.716 11.4154 14.6966 11.5524 14.7056C11.6905 14.7044 11.8274 14.7315 11.9547 14.7851C12.0819 14.8388 12.1969 14.918 12.2924 15.0178C12.3879 15.1175 12.4619 15.2358 12.51 15.3653C12.558 15.4948 12.5791 15.6327 12.5718 15.7707Z" fill="#7C7C7C"/>
<path d="M6.34812 15.6642C6.35418 15.9385 6.25098 16.2041 6.06124 16.4024C5.96729 16.5006 5.85491 16.5793 5.73054 16.6341C5.60616 16.6888 5.47222 16.7186 5.33635 16.7216C5.06196 16.7276 4.79641 16.6244 4.5981 16.4347C4.3998 16.2449 4.285 15.9842 4.27894 15.7098C4.27423 15.5772 4.29635 15.4451 4.34399 15.3213C4.39163 15.1975 4.4638 15.0846 4.55617 14.9894C4.64854 14.8941 4.7592 14.8186 4.88151 14.7672C5.00381 14.7158 5.13524 14.6897 5.26789 14.6904C5.89169 14.6752 6.33291 15.0708 6.34812 15.6642Z" fill="#7C7C7C"/>
<path d="M9.72989 5.27277C10.9927 4.58811 12.2251 4.63376 13.4727 5.33363C13.4575 5.59227 13.2292 5.83571 13.4727 6.09435C13.7313 5.95742 13.6096 5.68356 13.7161 5.50099C14.6594 6.23128 15.1158 7.1898 15.1767 8.37653C15.2376 9.56327 15.3288 10.7652 15.4353 11.9519C15.481 12.4692 15.2832 12.6975 14.7659 12.667C12.6207 12.5605 10.4754 12.5301 8.33015 12.6366C7.8585 12.667 7.61507 12.4692 7.66071 11.9672C7.76721 10.6435 7.84328 9.31983 7.965 7.99617C8.00522 7.48188 8.1634 6.98376 8.42725 6.54049C8.69111 6.09721 9.05355 5.72068 9.48646 5.44013C9.68424 5.60749 9.51688 5.92699 9.76032 6.12478C9.98854 5.83571 9.7451 5.56184 9.72989 5.27277ZM11.5556 10.7652C12.1121 10.7681 12.6471 10.5503 13.0434 10.1597C13.4398 9.76904 13.6652 9.2373 13.6705 8.68082C13.6857 7.47888 12.7119 6.44429 11.5252 6.52036C10.0342 6.62686 9.41038 7.32673 9.37995 8.90904C9.36474 9.82191 10.521 10.7652 11.5556 10.7652Z" fill="#BA3230"/>
<path d="M13.7262 5.51599C13.6045 5.69857 13.7414 5.97243 13.4827 6.10936C13.2393 5.85071 13.4675 5.59206 13.4827 5.34863C13.9544 4.64876 14.4869 4.04018 15.4302 4.10104C15.6128 4.11626 15.6889 3.97932 15.8106 3.88804C15.8667 3.83672 15.9399 3.80826 16.016 3.80826C16.092 3.80826 16.1653 3.83672 16.2214 3.88804C16.2841 3.93386 16.3269 4.00194 16.341 4.07832C16.3552 4.15469 16.3396 4.23358 16.2974 4.29883C16.263 4.36627 16.2064 4.41977 16.1371 4.45026C16.0678 4.48075 15.9901 4.48638 15.9171 4.46619C14.776 4.25319 14.1826 4.54226 13.7262 5.51599Z" fill="white"/>
<path d="M9.7262 5.2726C9.74142 5.54646 9.96964 5.82032 9.75663 6.13983C9.5132 5.94204 9.68056 5.62253 9.48277 5.45517C9.25455 4.7553 8.72204 4.40537 8.03739 4.25323C7.9279 4.22352 7.81249 4.22336 7.70292 4.25276C7.59334 4.28216 7.49351 4.34006 7.41359 4.42059C7.38192 4.44154 7.34631 4.45582 7.30894 4.46258C7.27157 4.46933 7.23321 4.46841 7.1962 4.45987C7.1592 4.45133 7.12432 4.43535 7.09369 4.4129C7.06305 4.39046 7.03731 4.36201 7.01801 4.3293C6.97628 4.27829 6.95223 4.21511 6.94948 4.14926C6.94674 4.08341 6.96545 4.01845 7.0028 3.96415C7.07887 3.84243 7.23102 3.75115 7.33752 3.812C7.74831 4.10108 8.28082 4.00979 8.72204 4.25323C9.14261 4.49619 9.4896 4.84843 9.7262 5.2726Z" fill="white"/>
<path d="M11.5538 10.765C10.5192 10.765 9.36286 9.82166 9.37808 8.924C9.40851 7.34169 10.0323 6.62661 11.5233 6.53532C12.7101 6.45925 13.6838 7.49383 13.6686 8.69578C13.6578 9.2491 13.4301 9.77604 13.0345 10.1631C12.639 10.5501 12.1072 10.7663 11.5538 10.765ZM10.3062 8.51321C10.291 9.31958 10.7474 9.85209 11.4929 9.91295C11.7982 9.92609 12.0984 9.83105 12.3406 9.64457C12.5827 9.4581 12.7513 9.19214 12.8166 8.89357C12.9383 8.16327 12.5579 7.66119 11.6907 7.46341C11.8276 7.88941 11.8428 8.28499 11.4625 8.58928C11.0517 8.86314 10.6713 8.75664 10.3062 8.51321Z" fill="white"/>
</svg>
